<svg width="1000" height="1000" viewBox="0 0 1000 1000" fill="none" xmlns="http://www.w3.org/2000/svg">
<path opacity="0.1" d="M287.05 538.35L511.78 92.49L518.98 919.82L287.05 613.78" fill="url(#paint0_linear_1817_2182)"/>
<path d="M946.85 128.36C946.837 107.573 938.57 87.642 923.867 72.9481C909.163 58.2542 889.227 50 868.44 50H581.44C571.144 49.9948 560.949 52.0174 551.435 55.9525C541.921 59.8877 533.275 65.6582 525.991 72.9345C518.707 80.2109 512.928 88.8508 508.983 98.3607C505.038 107.871 503.005 118.064 503 128.36V871.55C502.995 881.852 505.02 892.054 508.959 901.573C512.898 911.092 518.675 919.742 525.959 927.027C533.242 934.313 541.89 940.092 551.408 944.033C560.926 947.975 571.128 950.003 581.43 950H868.43C889.224 949.997 909.165 941.735 923.868 927.031C938.57 912.326 946.83 892.384 946.83 871.59L946.85 128.36Z" fill="#363F4A"/>
<path d="M930.85 123.11V876.8C930.845 892.566 924.58 907.686 913.432 918.835C902.285 929.985 887.166 936.252 871.4 936.26H578.5C570.689 936.263 562.954 934.727 555.736 931.74C548.519 928.753 541.961 924.374 536.435 918.853C530.91 913.332 526.527 906.776 523.535 899.561C520.544 892.345 519.003 884.611 519 876.8V123.11C519.003 115.299 520.544 107.566 523.536 100.351C526.527 93.1362 530.911 86.5813 536.436 81.0607C541.961 75.5401 548.52 71.162 555.737 68.1764C562.955 65.1908 570.689 63.6561 578.5 63.66H871.39C887.156 63.66 902.277 69.9218 913.427 81.0684C924.578 92.215 930.845 107.334 930.85 123.1V123.11Z" fill="white"/>
<path opacity="0.15" d="M930.85 123.11V876.8C930.845 892.566 924.58 907.686 913.432 918.835C902.285 929.985 887.166 936.252 871.4 936.26H578.5C570.689 936.263 562.954 934.727 555.736 931.74C548.519 928.753 541.961 924.374 536.435 918.853C530.91 913.332 526.527 906.776 523.535 899.561C520.544 892.345 519.003 884.611 519 876.8V123.11C519.003 115.299 520.544 107.566 523.536 100.351C526.527 93.1362 530.911 86.5813 536.436 81.0607C541.961 75.5401 548.52 71.162 555.737 68.1764C562.955 65.1908 570.689 63.6561 578.5 63.66H871.39C887.156 63.66 902.277 69.9218 913.427 81.0684C924.578 92.215 930.845 107.334 930.85 123.1V123.11Z" fill="url(#paint1_linear_1817_2182)"/>
<path d="M624.67 54.31H824.67V82.54C824.67 87.3802 822.747 92.0222 819.325 95.4447C815.902 98.8672 811.26 100.79 806.42 100.79H642.92C638.08 100.79 633.438 98.8672 630.015 95.4447C626.593 92.0222 624.67 87.3802 624.67 82.54V54.31Z" fill="#363F4A"/>
<path d="M870.46 823.86H578.88C563.029 823.86 550.18 836.709 550.18 852.56V874.93C550.18 890.781 563.029 903.63 578.88 903.63H870.46C886.311 903.63 899.16 890.781 899.16 874.93V852.56C899.16 836.709 886.311 823.86 870.46 823.86Z" fill="url(#paint2_linear_1817_2182)"/>
<path d="M743.51 862.82C731.27 858.04 717 850.75 706.79 842.82C706.613 842.686 706.397 842.614 706.176 842.616C705.954 842.618 705.739 842.694 705.565 842.831C705.391 842.968 705.268 843.16 705.214 843.375C705.161 843.59 705.18 843.817 705.27 844.02C707.79 849.54 711.96 859.33 711.96 863.72C711.96 868.11 707.8 877.89 705.28 883.41C705.194 883.611 705.176 883.836 705.23 884.048C705.284 884.261 705.406 884.449 705.577 884.586C705.749 884.722 705.961 884.798 706.18 884.803C706.399 884.807 706.613 884.739 706.79 884.61C717 876.71 731.27 869.42 743.51 864.61C743.676 864.527 743.816 864.399 743.914 864.241C744.012 864.083 744.064 863.901 744.064 863.715C744.064 863.529 744.012 863.347 743.914 863.189C743.816 863.031 743.676 862.903 743.51 862.82Z" fill="white"/>
<path opacity="0.25" d="M877.25 472.96H572.09C559.989 472.96 550.18 482.769 550.18 494.87V600.61C550.18 612.711 559.989 622.52 572.09 622.52H877.25C889.351 622.52 899.16 612.711 899.16 600.61V494.87C899.16 482.769 889.351 472.96 877.25 472.96Z" fill="#EFD0FF"/>
<path d="M657.63 595.77C661.386 595.77 664.43 592.725 664.43 588.97C664.43 585.214 661.386 582.17 657.63 582.17C653.874 582.17 650.83 585.214 650.83 588.97C650.83 592.725 653.874 595.77 657.63 595.77Z" fill="#363F4A"/>
<path d="M567.53 551.74C552.69 567.86 618.95 592.19 624.24 599.74C624.66 599.99 636.06 588.23 637.76 587.11C640.5 580.37 574.57 538.53 567.53 551.74Z" fill="#00E4A2"/>
<path d="M692.24 611.06C684.33 601.77 652.32 584.14 638.97 583.49L563.37 547.49C563.37 547.49 670.82 410.69 756.46 566.58C760.82 574.5 694.62 607.49 692.24 611.06Z" fill="white"/>
<path d="M579.41 555.27L648.61 591.94C649.189 589.626 649.934 587.357 650.84 585.15L579.5 555.09C579.476 555.078 579.448 555.076 579.423 555.084C579.398 555.093 579.377 555.111 579.365 555.135C579.353 555.159 579.351 555.186 579.36 555.212C579.368 555.237 579.386 555.258 579.41 555.27V555.27Z" fill="#363F4A"/>
<path d="M651.9 555.58C650.233 555.128 648.64 554.437 647.17 553.53C645.648 552.585 644.259 551.442 643.04 550.13L647.04 545.28C648.305 546.867 649.894 548.165 651.7 549.09C653.428 549.944 655.333 550.379 657.26 550.36C660.03 550.36 662.09 549.82 663.46 548.74C664.155 548.133 664.698 547.372 665.045 546.518C665.392 545.663 665.534 544.739 665.46 543.82V543.82C665.522 542.628 665.169 541.451 664.46 540.49C663.783 539.658 662.896 539.023 661.89 538.65C660.591 538.172 659.253 537.811 657.89 537.57H657.73H657.56L657.26 537.51L656.95 537.45C654.795 537.085 652.674 536.54 650.61 535.82C648.93 535.161 647.485 534.015 646.46 532.53C645.194 530.512 644.592 528.148 644.74 525.77V525.77C644.653 523.317 645.186 520.882 646.29 518.69C647.322 516.803 648.95 515.312 650.92 514.45C653.366 513.431 656.002 512.946 658.65 513.03C659.995 513.031 661.336 513.175 662.65 513.46C664.024 513.749 665.364 514.178 666.65 514.74C668.003 515.344 669.301 516.063 670.53 516.89L667 521.71C665.694 520.803 664.275 520.07 662.78 519.53C661.474 519.061 660.098 518.818 658.71 518.81C656.13 518.81 654.21 519.34 652.92 520.41C652.255 521.005 651.736 521.744 651.401 522.571C651.067 523.398 650.926 524.29 650.99 525.18V525.18C650.921 526.422 651.316 527.644 652.1 528.61C652.856 529.451 653.818 530.081 654.89 530.44C656.399 530.935 657.935 531.345 659.49 531.67H659.73L659.99 531.73L660.27 531.79L660.55 531.85C662.536 532.254 664.471 532.878 666.32 533.71C667.916 534.49 669.258 535.707 670.19 537.22C671.317 539.234 671.851 541.525 671.73 543.83V544C671.819 546.389 671.267 548.757 670.13 550.86C669.017 552.713 667.328 554.149 665.32 554.95C661.023 556.484 656.369 556.717 651.94 555.62L651.9 555.58ZM654.84 508.18H660.84V514.84H654.84V508.18ZM654.84 553.96H660.84V560.96H654.84V553.96Z" fill="#363F4A"/>
<path d="M831.44 496.95H818.8V514.52H831.44V496.95Z" fill="#363F4A"/>
<path d="M825.12 501C833.172 501 839.7 499.187 839.7 496.95C839.7 494.713 833.172 492.9 825.12 492.9C817.068 492.9 810.54 494.713 810.54 496.95C810.54 499.187 817.068 501 825.12 501Z" fill="#363F4A"/>
<path d="M825.11 602.58C849.897 602.58 869.99 582.487 869.99 557.7C869.99 532.914 849.897 512.82 825.11 512.82C800.323 512.82 780.23 532.914 780.23 557.7C780.23 582.487 800.323 602.58 825.11 602.58Z" fill="white"/>
<path d="M825.11 557.87L825.12 511.53L835.5 512.83L836.57 513.52L825.11 557.87Z" fill="#00E4A2"/>
<path d="M825.39 595.24H824.8C824.248 595.24 823.8 595.688 823.8 596.24V599.1C823.8 599.652 824.248 600.1 824.8 600.1H825.39C825.942 600.1 826.39 599.652 826.39 599.1V596.24C826.39 595.688 825.942 595.24 825.39 595.24Z" fill="#363F4A"/>
<path d="M824.94 563.86C828.248 563.86 830.93 561.178 830.93 557.87C830.93 554.562 828.248 551.88 824.94 551.88C821.632 551.88 818.95 554.562 818.95 557.87C818.95 561.178 821.632 563.86 824.94 563.86Z" fill="#363F4A"/>
<path d="M825.25 515.09H824.66C824.108 515.09 823.66 515.538 823.66 516.09V518.95C823.66 519.502 824.108 519.95 824.66 519.95H825.25C825.802 519.95 826.25 519.502 826.25 518.95V516.09C826.25 515.538 825.802 515.09 825.25 515.09Z" fill="#363F4A"/>
<path d="M786.03 556.56H783.17C782.618 556.56 782.17 557.008 782.17 557.56V558.15C782.17 558.702 782.618 559.15 783.17 559.15H786.03C786.582 559.15 787.03 558.702 787.03 558.15V557.56C787.03 557.008 786.582 556.56 786.03 556.56Z" fill="#363F4A"/>
<path d="M866.71 556.58H863.85C863.298 556.58 862.85 557.028 862.85 557.58V558.17C862.85 558.722 863.298 559.17 863.85 559.17H866.71C867.262 559.17 867.71 558.722 867.71 558.17V557.58C867.71 557.028 867.262 556.58 866.71 556.58Z" fill="#363F4A"/>
<path d="M827.93 555.67L822.6 554.21L832.79 527.21C832.812 527.152 832.855 527.105 832.91 527.077C832.965 527.049 833.029 527.043 833.089 527.059C833.148 527.075 833.2 527.113 833.233 527.165C833.267 527.216 833.28 527.279 833.27 527.34L827.93 555.67Z" fill="#363F4A"/>
<path opacity="0.25" d="M877.25 648.41H572.09C559.989 648.41 550.18 658.219 550.18 670.32V776.06C550.18 788.16 559.989 797.97 572.09 797.97H877.25C889.351 797.97 899.16 788.16 899.16 776.06V670.32C899.16 658.219 889.351 648.41 877.25 648.41Z" fill="#00E4A2"/>
<path d="M579.41 743.61C577.31 741.49 576.263 738.53 576.27 734.73V715.42C576.27 711.613 577.32 708.65 579.42 706.53C581.52 704.41 584.577 703.353 588.59 703.36C592.63 703.36 595.693 704.413 597.78 706.52C599.867 708.627 600.913 711.593 600.92 715.42V734.73C600.92 738.55 599.87 741.517 597.77 743.63C595.66 745.74 592.61 746.8 588.59 746.8C584.57 746.8 581.5 745.74 579.41 743.61ZM592.86 738.72C593.857 737.345 594.342 735.665 594.23 733.97V716.18C594.341 714.488 593.856 712.812 592.86 711.44C591.693 710.379 590.172 709.791 588.595 709.791C587.018 709.791 585.497 710.379 584.33 711.44C583.329 712.809 582.844 714.488 582.96 716.18V734C582.843 735.695 583.328 737.378 584.33 738.75C585.497 739.811 587.018 740.399 588.595 740.399C590.172 740.399 591.693 739.811 592.86 738.75V738.72Z" fill="#363F4A"/>
<path d="M606.68 739.47H613.57V746.36H606.68V739.47Z" fill="#363F4A"/>
<path d="M622.46 743.61C620.373 741.49 619.33 738.53 619.33 734.73V715.42C619.33 711.613 620.38 708.65 622.48 706.53C624.58 704.41 627.637 703.353 631.65 703.36C635.65 703.36 638.713 704.413 640.84 706.52C642.967 708.627 644.013 711.593 643.98 715.42V734.73C643.98 738.55 642.927 741.517 640.82 743.63C638.713 745.743 635.657 746.8 631.65 746.8C627.623 746.8 624.56 745.737 622.46 743.61ZM635.92 738.72C636.917 737.345 637.402 735.665 637.29 733.97V716.18C637.401 714.488 636.916 712.812 635.92 711.44C634.753 710.379 633.232 709.791 631.655 709.791C630.078 709.791 628.557 710.379 627.39 711.44C626.386 712.808 625.897 714.487 626.01 716.18V734C625.896 735.696 626.384 737.379 627.39 738.75C628.557 739.811 630.078 740.399 631.655 740.399C633.232 740.399 634.753 739.811 635.92 738.75V738.72Z" fill="#363F4A"/>
<path d="M654.31 743.61C652.21 741.49 651.163 738.53 651.17 734.73V715.42C651.17 711.613 652.22 708.65 654.32 706.53C656.42 704.41 659.477 703.353 663.49 703.36C667.49 703.36 670.553 704.413 672.68 706.52C674.807 708.627 675.853 711.593 675.82 715.42V734.73C675.82 738.55 674.77 741.517 672.67 743.63C670.57 745.743 667.51 746.8 663.49 746.8C659.463 746.8 656.403 745.737 654.31 743.61ZM667.76 738.72C668.757 737.345 669.242 735.665 669.13 733.97V716.18C669.241 714.488 668.756 712.812 667.76 711.44C666.593 710.379 665.072 709.791 663.495 709.791C661.918 709.791 660.397 710.379 659.23 711.44C658.229 712.809 657.744 714.488 657.86 716.18V734C657.743 735.695 658.228 737.378 659.23 738.75C660.397 739.811 661.918 740.399 663.495 740.399C665.072 740.399 666.593 739.811 667.76 738.75V738.72Z" fill="#363F4A"/>
<path d="M686.15 743.61C684.05 741.49 683.003 738.53 683.01 734.73V715.42C683.01 711.613 684.06 708.65 686.16 706.53C688.26 704.41 691.317 703.353 695.33 703.36C699.37 703.36 702.433 704.413 704.52 706.52C706.607 708.627 707.653 711.593 707.66 715.42V734.73C707.66 738.55 706.61 741.517 704.51 743.63C702.4 745.74 699.35 746.8 695.33 746.8C691.31 746.8 688.24 745.74 686.15 743.61ZM699.6 738.72C700.601 737.357 701.096 735.688 701 734V716.18C701.111 714.488 700.626 712.812 699.63 711.44C698.463 710.379 696.942 709.791 695.365 709.791C693.788 709.791 692.267 710.379 691.1 711.44C690.099 712.809 689.614 714.488 689.73 716.18V734C689.613 735.695 690.098 737.378 691.1 738.75C692.267 739.811 693.788 740.399 695.365 740.399C696.942 740.399 698.463 739.811 699.63 738.75L699.6 738.72Z" fill="#363F4A"/>
<path d="M720.53 745.46C718.696 744.598 717.13 743.253 716 741.57C714.826 739.736 714.138 737.633 714 735.46H720.87C720.978 736.431 721.321 737.362 721.87 738.17C722.383 738.871 723.073 739.423 723.87 739.77C724.779 740.147 725.756 740.331 726.74 740.31C727.497 740.358 728.257 740.254 728.973 740.003C729.689 739.752 730.348 739.36 730.91 738.85C731.431 738.304 731.833 737.656 732.091 736.947C732.349 736.238 732.458 735.483 732.41 734.73V733.57C732.516 731.956 732.037 730.359 731.06 729.07C730.582 728.535 729.989 728.115 729.326 727.841C728.663 727.568 727.946 727.448 727.23 727.49H724V721.06H727.21C727.826 721.098 728.443 720.996 729.014 720.763C729.586 720.529 730.097 720.169 730.51 719.71C731.353 718.61 731.768 717.243 731.68 715.86V714.75C731.721 714.103 731.631 713.455 731.416 712.843C731.201 712.232 730.866 711.669 730.43 711.19C729.955 710.752 729.397 710.415 728.789 710.198C728.18 709.982 727.535 709.891 726.89 709.93C726.042 709.919 725.205 710.115 724.45 710.5C723.702 710.901 723.069 711.486 722.61 712.2C722.076 713.054 721.706 714 721.52 714.99H714.68C714.937 712.781 715.674 710.654 716.84 708.76C717.882 707.07 719.356 705.689 721.11 704.76C722.935 703.83 724.962 703.363 727.01 703.4C730.71 703.4 733.567 704.363 735.58 706.29C737.593 708.217 738.593 710.933 738.58 714.44V715.35C738.619 717.278 738.044 719.169 736.94 720.75C735.785 722.337 734.163 723.522 732.3 724.14C734.385 724.543 736.232 725.74 737.45 727.48C738.735 729.453 739.375 731.777 739.28 734.13V735.03C739.343 737.23 738.851 739.41 737.85 741.37C736.902 743.109 735.434 744.508 733.65 745.37C731.574 746.355 729.297 746.845 727 746.8C724.771 746.84 722.56 746.382 720.53 745.46V745.46Z" fill="#363F4A"/>
<path opacity="0.25" d="M877.25 297.51H572.09C559.989 297.51 550.18 307.319 550.18 319.42V425.16C550.18 437.261 559.989 447.07 572.09 447.07H877.25C889.351 447.07 899.16 437.261 899.16 425.16V319.42C899.16 307.319 889.351 297.51 877.25 297.51Z" fill="#E1E1E1"/>
<path d="M594.8 395.63C593.05 395.194 591.368 394.521 589.8 393.63C588.354 392.816 587.051 391.772 585.94 390.54L589.83 385.04C591.182 386.539 592.826 387.747 594.66 388.59C596.453 389.404 598.401 389.82 600.37 389.81C602.427 389.951 604.474 389.417 606.2 388.29C606.869 387.755 607.4 387.067 607.749 386.284C608.097 385.501 608.251 384.645 608.2 383.79V383.79C608.261 382.68 607.932 381.583 607.27 380.69C606.63 379.924 605.799 379.341 604.86 379C603.627 378.561 602.359 378.227 601.07 378C601.017 377.99 600.963 377.99 600.91 378C600.867 378.01 600.823 378.01 600.78 378H600.52H600.26C598.055 377.635 595.887 377.077 593.78 376.33C592.066 375.653 590.593 374.48 589.55 372.96C588.251 370.899 587.632 368.482 587.78 366.05V366.05C587.7 363.594 588.255 361.159 589.39 358.98C590.465 357.064 592.131 355.549 594.14 354.66C596.575 353.55 599.224 352.983 601.9 353C603.286 353.004 604.668 353.162 606.02 353.47C607.42 353.788 608.783 354.247 610.09 354.84C611.458 355.436 612.767 356.159 614 357L610.5 362.64C609.164 361.657 607.7 360.86 606.15 360.27C604.793 359.763 603.358 359.496 601.91 359.48C599.982 359.348 598.064 359.861 596.46 360.94C595.838 361.456 595.346 362.112 595.024 362.854C594.703 363.596 594.561 364.403 594.61 365.21V365.21C594.526 366.38 594.883 367.539 595.61 368.46C596.324 369.259 597.234 369.859 598.25 370.2C599.674 370.669 601.123 371.06 602.59 371.37C602.65 371.36 602.71 371.36 602.77 371.37C602.826 371.38 602.884 371.38 602.94 371.37L603.22 371.43L603.5 371.49C605.54 371.905 607.528 372.543 609.43 373.39C611.058 374.177 612.429 375.412 613.38 376.95C614.548 378.979 615.103 381.302 614.98 383.64V383.7C615.059 386.102 614.481 388.481 613.31 390.58C612.164 392.472 610.438 393.945 608.39 394.78C605.848 395.794 603.126 396.277 600.39 396.2C598.51 396.249 596.631 396.057 594.8 395.63ZM597.69 348.25H604.41V354.91H597.69V348.25ZM597.69 394.02H604.41V401.02H597.69V394.02Z" fill="#363F4A"/>
<path d="M632.87 395.89H626.18V361L620.45 364.07V357.07L626.58 353.48H632.87V395.89Z" fill="#363F4A"/>
<path d="M646.9 395C645.066 394.138 643.5 392.793 642.37 391.11C641.198 389.279 640.51 387.18 640.37 385.01H647.24C647.343 385.979 647.687 386.907 648.24 387.71C648.748 388.416 649.44 388.969 650.24 389.31C651.144 389.692 652.119 389.876 653.1 389.85C653.859 389.897 654.619 389.792 655.337 389.542C656.055 389.291 656.716 388.899 657.28 388.39C657.796 387.843 658.195 387.196 658.451 386.489C658.707 385.783 658.816 385.031 658.77 384.28V383.1C658.876 381.486 658.397 379.889 657.42 378.6C656.944 378.065 656.353 377.645 655.691 377.372C655.03 377.098 654.315 376.978 653.6 377.02H650.38V370.59H653.6C654.216 370.626 654.832 370.523 655.403 370.289C655.974 370.056 656.486 369.697 656.9 369.24C657.743 368.14 658.158 366.773 658.07 365.39V364.28C658.139 363.632 658.062 362.977 657.846 362.362C657.629 361.747 657.278 361.189 656.818 360.727C656.358 360.265 655.801 359.912 655.187 359.692C654.573 359.473 653.918 359.394 653.27 359.46C652.426 359.449 651.591 359.645 650.84 360.03C650.089 360.427 649.455 361.013 649 361.73C648.458 362.581 648.084 363.528 647.9 364.52H641C641.263 362.314 642.004 360.191 643.17 358.3C644.206 356.609 645.677 355.227 647.43 354.3C649.255 353.37 651.282 352.903 653.33 352.94C657.03 352.94 659.89 353.903 661.91 355.83C663.93 357.757 664.93 360.473 664.91 363.98V364.89C664.949 366.818 664.375 368.709 663.27 370.29C662.115 371.877 660.493 373.062 658.63 373.68C660.716 374.08 662.564 375.278 663.78 377.02C665.065 378.993 665.705 381.317 665.61 383.67V384.58C665.672 386.777 665.18 388.953 664.18 390.91C663.237 392.649 661.771 394.048 659.99 394.91C657.909 395.873 655.633 396.342 653.34 396.28C651.125 396.334 648.926 395.897 646.9 395Z" fill="#363F4A"/>
<path d="M678.54 395C676.701 394.136 675.131 392.788 674 391.1C672.824 389.271 672.135 387.171 672 385H678.86C678.972 385.967 679.315 386.893 679.86 387.7C680.373 388.401 681.063 388.953 681.86 389.3C682.767 389.683 683.746 389.867 684.73 389.84C685.487 389.888 686.247 389.784 686.963 389.533C687.679 389.282 688.338 388.89 688.9 388.38C689.418 387.835 689.818 387.188 690.074 386.481C690.331 385.773 690.438 385.021 690.39 384.27V383.1C690.494 381.488 690.019 379.892 689.05 378.6C688.572 378.065 687.979 377.645 687.316 377.371C686.653 377.098 685.936 376.978 685.22 377.02H682V370.59H685.21C685.826 370.626 686.442 370.523 687.013 370.289C687.584 370.056 688.096 369.697 688.51 369.24C689.353 368.14 689.768 366.773 689.68 365.39V364.28C689.719 363.633 689.629 362.985 689.415 362.374C689.2 361.762 688.865 361.2 688.43 360.72C687.955 360.282 687.397 359.945 686.789 359.728C686.18 359.512 685.535 359.421 684.89 359.46C684.042 359.449 683.205 359.645 682.45 360.03C681.702 360.431 681.069 361.016 680.61 361.73C680.071 362.582 679.701 363.529 679.52 364.52H672.68C672.935 362.313 673.673 360.19 674.84 358.3C675.876 356.606 677.352 355.223 679.11 354.3C680.938 353.392 682.96 352.946 685 353C688.7 353 691.557 353.963 693.57 355.89C695.57 357.82 696.57 360.54 696.57 364.04V364.95C696.612 366.877 696.042 368.768 694.94 370.35C693.783 371.939 692.157 373.125 690.29 373.74C692.378 374.142 694.228 375.34 695.45 377.08C696.735 379.053 697.375 381.377 697.28 383.73V384.64C697.343 386.838 696.848 389.016 695.84 390.97C694.899 392.711 693.433 394.111 691.65 394.97C689.572 395.933 687.299 396.402 685.01 396.34C682.781 396.38 680.57 395.922 678.54 395V395Z" fill="#363F4A"/>
<path d="M727.72 358.73L717.29 395.89H710.07L720.41 359.84H710.89V366.07H704.2V353.42H727.72V358.73Z" fill="#363F4A"/>
<path d="M724.67 271.62C765.296 271.62 798.23 238.686 798.23 198.06C798.23 157.434 765.296 124.5 724.67 124.5C684.044 124.5 651.11 157.434 651.11 198.06C651.11 238.686 684.044 271.62 724.67 271.62Z" fill="url(#paint3_radial_1817_2182)"/>
<path d="M867.86 388.9H815.09C814.538 388.9 814.09 389.348 814.09 389.9V406.27C814.09 406.822 814.538 407.27 815.09 407.27H867.86C868.412 407.27 868.86 406.822 868.86 406.27V389.9C868.86 389.348 868.412 388.9 867.86 388.9Z" fill="#EFD0FF"/>
<path d="M819.29 420.12L782.63 399C782.478 398.912 782.353 398.786 782.265 398.634C782.178 398.482 782.132 398.31 782.132 398.135C782.132 397.96 782.178 397.788 782.265 397.636C782.353 397.484 782.478 397.358 782.63 397.27L819.29 376.11C819.442 376.022 819.613 375.976 819.789 375.976C819.964 375.976 820.136 376.021 820.287 376.108C820.439 376.196 820.566 376.321 820.654 376.472C820.742 376.623 820.789 376.795 820.79 376.97V419.3C820.782 419.472 820.73 419.638 820.639 419.784C820.548 419.93 820.421 420.05 820.271 420.132C820.12 420.214 819.951 420.257 819.779 420.254C819.607 420.252 819.439 420.206 819.29 420.12Z" fill="#EFD0FF"/>
<path d="M834.8 341.29H782.03C781.478 341.29 781.03 341.738 781.03 342.29V358.66C781.03 359.212 781.478 359.66 782.03 359.66H834.8C835.352 359.66 835.8 359.212 835.8 358.66V342.29C835.8 341.738 835.352 341.29 834.8 341.29Z" fill="#00E4A2"/>
<path d="M830.6 372.51L867.25 351.34C867.402 351.252 867.527 351.126 867.615 350.974C867.702 350.822 867.748 350.65 867.748 350.475C867.748 350.3 867.702 350.128 867.615 349.976C867.527 349.824 867.402 349.698 867.25 349.61L830.6 328.45C830.448 328.363 830.277 328.316 830.102 328.316C829.926 328.316 829.754 328.361 829.603 328.449C829.451 328.536 829.324 328.661 829.236 328.812C829.148 328.963 829.101 329.135 829.1 329.31V371.64C829.099 371.816 829.145 371.989 829.232 372.141C829.32 372.294 829.446 372.421 829.598 372.509C829.75 372.597 829.923 372.644 830.099 372.644C830.275 372.644 830.448 372.598 830.6 372.51Z" fill="#00E4A2"/>
<path opacity="0.15" d="M164.56 928.63C219.993 928.63 264.93 917.437 264.93 903.63C264.93 889.823 219.993 878.63 164.56 878.63C109.127 878.63 64.19 889.823 64.19 903.63C64.19 917.437 109.127 928.63 164.56 928.63Z" fill="url(#paint4_linear_1817_2182)"/>
<path d="M200.59 664.46L214.78 766.88L205.01 888.01H188.97L182.49 778.6L158.6 724.97L153.04 776.24L130.38 887.9H114.34L123.91 785.04L114.46 667.4L200.59 664.46Z" fill="#053651"/>
<path d="M189 888L188 902.77C187.989 902.876 188 902.984 188.032 903.086C188.065 903.188 188.118 903.282 188.188 903.363C188.258 903.444 188.345 903.509 188.441 903.555C188.538 903.601 188.643 903.626 188.75 903.63H227C227.144 903.615 227.28 903.555 227.388 903.458C227.497 903.361 227.571 903.233 227.603 903.091C227.634 902.949 227.619 902.801 227.561 902.668C227.503 902.535 227.405 902.424 227.28 902.35C222.05 899.56 209.79 892.77 204.97 888.01L189 888Z" fill="white"/>
<path d="M114.34 887.9L113.41 902.77C113.4 902.876 113.412 902.983 113.445 903.085C113.478 903.186 113.531 903.28 113.601 903.36C113.671 903.44 113.757 903.506 113.853 903.552C113.949 903.599 114.053 903.625 114.16 903.63H152.42C152.568 903.62 152.708 903.562 152.819 903.465C152.931 903.368 153.008 903.237 153.038 903.092C153.069 902.947 153.051 902.796 152.989 902.663C152.926 902.529 152.821 902.419 152.69 902.35C147.46 899.56 135.21 892.66 130.38 887.9H114.34Z" fill="white"/>
<path opacity="0.25" d="M164.56 711.2L191.66 775.86L188.97 887.9L182.49 778.6L158.6 724.97L164.56 711.2Z" fill="url(#paint5_linear_1817_2182)"/>
<path d="M156.86 534.68C157.27 530.25 155.24 520.18 160.67 517.62C172.85 511.89 189.75 484.57 165.28 468.09C139.28 454.77 131.06 475.3 131.06 475.3L132.78 533.88L156.86 534.68Z" fill="#E1E1E1"/>
<path d="M131.77 511C122.52 510.08 97.23 454.76 134.5 447.89C156.36 443.89 187.37 454.43 169.78 471.89C162.73 476.28 143.69 466.89 137 472.74C133.78 475.62 135.25 481.51 136 485.96C138.24 500.23 139.7 510 131.77 511Z" fill="#23213B"/>
<path d="M281.9 571.47C291.24 569.28 295.9 580.91 286.9 584.93C277.58 589.09 269.96 591.93 269.96 591.93L266.66 575.93C271.63 574.09 276.722 572.6 281.9 571.47Z" fill="#E1E1E1"/>
<path d="M95.07 673.87C101.57 680.35 110.25 678.96 107.07 670.77C104.73 664.69 98.07 653.1 98.07 653.1L85.65 663.42C85.65 663.42 87.29 666.13 95.07 673.87Z" fill="#E1E1E1"/>
<path d="M269.91 591.92L266.61 575.92L230.61 588.92C230.61 588.92 201.32 549.22 187.71 540.04C176.99 532.81 157.84 528.87 144.91 528.8C134.41 528.74 105.76 533.92 100.42 538.4C84.14 552 50 604.18 50 604.18L85.65 663.42L98.08 653.1L79 608.74L104.59 581.64L113.38 680.49C142.43 691.49 176.17 686.6 204.38 671.21L191.66 588.12L225.66 621.05L269.91 591.92Z" fill="#00E4A2"/>
<path opacity="0.25" d="M114.34 570.17L113.41 680.49L104.62 581.64L114.34 570.17Z" fill="url(#paint6_linear_1817_2182)"/>
<path opacity="0.25" d="M187.67 568.17L225.7 621.04L191.66 588.12L187.67 568.17Z" fill="url(#paint7_linear_1817_2182)"/>
<path d="M319 543.44C319 541.615 318.275 539.865 316.985 538.575C315.695 537.285 313.945 536.56 312.12 536.56H286.92C285.095 536.56 283.345 537.285 282.055 538.575C280.765 539.865 280.04 541.615 280.04 543.44V543.44V608.69C280.04 610.515 280.765 612.265 282.055 613.555C283.345 614.845 285.095 615.57 286.92 615.57H312.12C313.945 615.57 315.695 614.845 316.985 613.555C318.275 612.265 319 610.515 319 608.69V608.69V543.44Z" fill="#363F4A"/>
<path d="M312.36 538.35H309.07C309.315 538.948 309.312 539.619 309.063 540.215C308.813 540.811 308.338 541.284 307.74 541.53C307.444 541.649 307.129 541.71 306.81 541.71H292.38C292.06 541.71 291.742 541.647 291.446 541.524C291.15 541.402 290.881 541.222 290.655 540.995C290.428 540.769 290.248 540.5 290.126 540.204C290.003 539.908 289.94 539.59 289.94 539.27C289.939 538.954 290 538.642 290.12 538.35H287.05C285.686 538.35 284.377 538.891 283.412 539.855C282.446 540.819 281.903 542.126 281.9 543.49V543.49V608.64C281.903 610.004 282.446 611.311 283.412 612.275C284.377 613.239 285.686 613.78 287.05 613.78H312.36C313.723 613.78 315.031 613.238 315.995 612.275C316.958 611.311 317.5 610.003 317.5 608.64V543.49C317.5 542.127 316.958 540.819 315.995 539.855C315.031 538.892 313.723 538.35 312.36 538.35Z" fill="white"/>
<path opacity="0.31" d="M312.36 538.35H309.07C309.315 538.948 309.312 539.619 309.063 540.215C308.813 540.811 308.338 541.284 307.74 541.53C307.444 541.649 307.129 541.71 306.81 541.71H292.38C292.06 541.71 291.742 541.647 291.446 541.524C291.15 541.402 290.881 541.222 290.655 540.995C290.428 540.769 290.248 540.5 290.126 540.204C290.003 539.908 289.94 539.59 289.94 539.27C289.939 538.954 290 538.642 290.12 538.35H287.05C285.686 538.35 284.377 538.891 283.412 539.855C282.446 540.819 281.903 542.126 281.9 543.49V543.49V608.64C281.903 610.004 282.446 611.311 283.412 612.275C284.377 613.239 285.686 613.78 287.05 613.78H312.36C313.723 613.78 315.031 613.238 315.995 612.275C316.958 611.311 317.5 610.003 317.5 608.64V543.49C317.5 542.127 316.958 540.819 315.995 539.855C315.031 538.892 313.723 538.35 312.36 538.35Z" fill="url(#paint8_linear_1817_2182)"/>
<path d="M725.246 217.894C735.423 217.894 743.672 209.645 743.672 199.468C743.672 189.292 735.423 181.042 725.246 181.042C715.07 181.042 706.82 189.292 706.82 199.468C706.82 209.645 715.07 217.894 725.246 217.894Z" stroke="white" stroke-width="4.30177" stroke-miterlimit="10"/>
<path d="M766.038 179.571C766.038 182.929 763.317 185.651 759.959 185.651C756.6 185.651 753.879 182.929 753.879 179.571C753.879 176.213 756.6 173.491 759.959 173.491C763.317 173.491 766.038 176.213 766.038 179.571Z" fill="white"/>
<path d="M777.989 170.314C777.989 171.458 777.06 172.387 775.915 172.387C774.771 172.387 773.842 171.458 773.842 170.314C773.842 169.17 774.771 168.24 775.915 168.24C777.06 168.24 777.989 169.17 777.989 170.314Z" fill="white"/>
<path d="M759.959 179.571L775.915 170.314" stroke="white" stroke-width="1.43392" stroke-miterlimit="10"/>
<path d="M762.15 199.247C762.15 201.791 760.088 203.853 757.544 203.853C755 203.853 752.938 201.791 752.938 199.247C752.938 196.704 755 194.642 757.544 194.642C760.088 194.642 762.15 196.704 762.15 199.247Z" fill="white"/>
<path d="M773.194 192.284C774.339 192.284 775.267 191.356 775.267 190.211C775.267 189.066 774.339 188.137 773.194 188.137C772.049 188.137 771.12 189.066 771.12 190.211C771.12 191.356 772.049 192.284 773.194 192.284Z" fill="white"/>
<path d="M757.082 199.606L773.194 190.211" stroke="white" stroke-width="1.43392" stroke-miterlimit="10"/>
<path d="M766.294 167.202C766.294 167.776 765.829 168.238 765.258 168.238C764.688 168.238 764.223 167.773 764.223 167.202C764.223 166.632 764.688 166.167 765.258 166.167C765.829 166.167 766.294 166.632 766.294 167.202Z" fill="white"/>
<path d="M774.232 181.117C774.232 181.691 773.767 182.152 773.197 182.152C772.626 182.152 772.161 181.688 772.161 181.117C772.161 180.546 772.626 180.082 773.197 180.082C773.767 180.082 774.232 180.546 774.232 181.117Z" fill="white"/>
<path d="M745.889 171.788C745.889 174.332 743.827 176.394 741.283 176.394C738.739 176.394 736.677 174.332 736.677 171.788C736.677 169.244 738.739 167.182 741.283 167.182C743.827 167.182 745.889 169.244 745.889 171.788V171.788Z" fill="white"/>
<path d="M757.24 164.647C758.385 164.647 759.313 163.719 759.313 162.574C759.313 161.428 758.385 160.5 757.24 160.5C756.095 160.5 755.166 161.428 755.166 162.574C755.166 163.719 756.095 164.647 757.24 164.647Z" fill="white"/>
<path d="M741.203 171.831L757.24 162.573" stroke="white" stroke-width="1.43392" stroke-miterlimit="10"/>
<path d="M690.537 185.651C693.894 185.651 696.616 182.929 696.616 179.571C696.616 176.213 693.894 173.491 690.537 173.491C687.179 173.491 684.457 176.213 684.457 179.571C684.457 182.929 687.179 185.651 690.537 185.651Z" fill="white"/>
<path d="M674.58 172.387C675.725 172.387 676.653 171.459 676.653 170.314C676.653 169.169 675.725 168.24 674.58 168.24C673.435 168.24 672.507 169.169 672.507 170.314C672.507 171.459 673.435 172.387 674.58 172.387Z" fill="white"/>
<path d="M690.537 179.571L674.58 170.314" stroke="white" stroke-width="1.43392" stroke-miterlimit="10"/>
<path d="M692.951 203.853C695.495 203.853 697.557 201.791 697.557 199.247C697.557 196.704 695.495 194.642 692.951 194.642C690.408 194.642 688.346 196.704 688.346 199.247C688.346 201.791 690.408 203.853 692.951 203.853Z" fill="white"/>
<path d="M677.299 192.284C678.444 192.284 679.372 191.356 679.372 190.211C679.372 189.066 678.444 188.138 677.299 188.138C676.154 188.138 675.225 189.066 675.225 190.211C675.225 191.356 676.154 192.284 677.299 192.284Z" fill="white"/>
<path d="M693.413 199.606L677.299 190.211" stroke="white" stroke-width="1.43392" stroke-miterlimit="10"/>
<path d="M685.24 168.238C685.812 168.238 686.275 167.774 686.275 167.202C686.275 166.63 685.812 166.167 685.24 166.167C684.668 166.167 684.204 166.63 684.204 167.202C684.204 167.774 684.668 168.238 685.24 168.238Z" fill="white"/>
<path d="M677.299 182.152C677.87 182.152 678.334 181.689 678.334 181.117C678.334 180.545 677.87 180.082 677.299 180.082C676.727 180.082 676.263 180.545 676.263 181.117C676.263 181.689 676.727 182.152 677.299 182.152Z" fill="white"/>
<path d="M709.212 176.394C711.756 176.394 713.818 174.332 713.818 171.788C713.818 169.244 711.756 167.182 709.212 167.182C706.668 167.182 704.606 169.244 704.606 171.788C704.606 174.332 706.668 176.394 709.212 176.394Z" fill="white"/>
<path d="M693.255 164.647C694.401 164.647 695.329 163.719 695.329 162.574C695.329 161.428 694.401 160.5 693.255 160.5C692.11 160.5 691.182 161.428 691.182 162.574C691.182 163.719 692.11 164.647 693.255 164.647Z" fill="white"/>
<path d="M709.292 171.831L693.255 162.573" stroke="white" stroke-width="1.43392" stroke-miterlimit="10"/>
<path d="M725.152 163.655C725.723 163.655 726.187 163.191 726.187 162.619C726.187 162.048 725.723 161.584 725.152 161.584C724.58 161.584 724.116 162.048 724.116 162.619C724.116 163.191 724.58 163.655 725.152 163.655Z" fill="white"/>
<path d="M725.246 144.787C727.673 144.787 729.64 142.82 729.64 140.394C729.64 137.967 727.673 136 725.246 136C722.82 136 720.853 137.967 720.853 140.394C720.853 142.82 722.82 144.787 725.246 144.787Z" fill="white"/>
<path d="M725.152 157.638C726.317 157.638 727.262 156.693 727.262 155.527C727.262 154.361 726.317 153.416 725.152 153.416C723.986 153.416 723.041 154.361 723.041 155.527C723.041 156.693 723.986 157.638 725.152 157.638Z" fill="white"/>
<path d="M725.223 155.527L725.246 140.394" stroke="white" stroke-width="1.43392" stroke-miterlimit="10"/>
<path d="M733.147 155.937C735.574 155.937 737.541 153.97 737.541 151.544C737.541 149.117 735.574 147.15 733.147 147.15C730.721 147.15 728.754 149.117 728.754 151.544C728.754 153.97 730.721 155.937 733.147 155.937Z" fill="white"/>
<path d="M733.05 168.788C734.215 168.788 735.16 167.843 735.16 166.677C735.16 165.512 734.215 164.567 733.05 164.567C731.884 164.567 730.939 165.512 730.939 166.677C730.939 167.843 731.884 168.788 733.05 168.788Z" fill="white"/>
<path d="M733.121 166.677L733.147 151.544" stroke="white" stroke-width="1.43392" stroke-miterlimit="10"/>
<path d="M717.19 155.608C719.617 155.608 721.584 153.64 721.584 151.214C721.584 148.787 719.617 146.82 717.19 146.82C714.764 146.82 712.797 148.787 712.797 151.214C712.797 153.64 714.764 155.608 717.19 155.608Z" fill="white"/>
<path d="M717.093 168.458C718.259 168.458 719.204 167.513 719.204 166.348C719.204 165.182 718.259 164.237 717.093 164.237C715.927 164.237 714.982 165.182 714.982 166.348C714.982 167.513 715.927 168.458 717.093 168.458Z" fill="white"/>
<path d="M717.167 166.348L717.19 151.214" stroke="white" stroke-width="1.43392" stroke-miterlimit="10"/>
<path d="M757.26 218.757C757.832 218.757 758.295 218.294 758.295 217.722C758.295 217.15 757.832 216.687 757.26 216.687C756.688 216.687 756.225 217.15 756.225 217.722C756.225 218.294 756.688 218.757 757.26 218.757Z" fill="white"/>
<path d="M776.489 233.26C778.915 233.26 780.882 231.293 780.882 228.867C780.882 226.44 778.915 224.473 776.489 224.473C774.062 224.473 772.095 226.44 772.095 228.867C772.095 231.293 774.062 233.26 776.489 233.26Z" fill="white"/>
<path d="M763.409 223.363C764.574 223.363 765.519 222.418 765.519 221.253C765.519 220.087 764.574 219.142 763.409 219.142C762.243 219.142 761.298 220.087 761.298 221.253C761.298 222.418 762.243 223.363 763.409 223.363Z" fill="white"/>
<path d="M763.374 221.313L776.489 228.867" stroke="white" stroke-width="1.43392" stroke-miterlimit="10"/>
<path d="M762.887 234.565C765.313 234.565 767.28 232.598 767.28 230.171C767.28 227.745 765.313 225.778 762.887 225.778C760.46 225.778 758.493 227.745 758.493 230.171C758.493 232.598 760.46 234.565 762.887 234.565Z" fill="white"/>
<path d="M749.806 224.665C750.972 224.665 751.917 223.72 751.917 222.555C751.917 221.389 750.972 220.444 749.806 220.444C748.641 220.444 747.696 221.389 747.696 222.555C747.696 223.72 748.641 224.665 749.806 224.665Z" fill="white"/>
<path d="M749.772 222.618L762.887 230.172" stroke="white" stroke-width="1.43392" stroke-miterlimit="10"/>
<path d="M771.115 220.888C773.541 220.888 775.508 218.921 775.508 216.495C775.508 214.068 773.541 212.101 771.115 212.101C768.688 212.101 766.721 214.068 766.721 216.495C766.721 218.921 768.688 220.888 771.115 220.888Z" fill="white"/>
<path d="M758.034 210.989C759.2 210.989 760.145 210.043 760.145 208.878C760.145 207.712 759.2 206.767 758.034 206.767C756.869 206.767 755.924 207.712 755.924 208.878C755.924 210.043 756.869 210.989 758.034 210.989Z" fill="white"/>
<path d="M757.997 208.941L771.115 216.495" stroke="white" stroke-width="1.43392" stroke-miterlimit="10"/>
<path d="M693.519 219.408C694.091 219.408 694.555 218.945 694.555 218.373C694.555 217.801 694.091 217.338 693.519 217.338C692.947 217.338 692.484 217.801 692.484 218.373C692.484 218.945 692.947 219.408 693.519 219.408Z" fill="white"/>
<path d="M674.394 234.086C676.82 234.086 678.787 232.119 678.787 229.693C678.787 227.266 676.82 225.299 674.394 225.299C671.967 225.299 670 227.266 670 229.693C670 232.119 671.967 234.086 674.394 234.086Z" fill="white"/>
<path d="M687.434 224.123C688.599 224.123 689.544 223.178 689.544 222.012C689.544 220.847 688.599 219.902 687.434 219.902C686.268 219.902 685.323 220.847 685.323 222.012C685.323 223.178 686.268 224.123 687.434 224.123Z" fill="white"/>
<path d="M687.396 221.949L674.394 229.693" stroke="white" stroke-width="1.43392" stroke-miterlimit="10"/>
<path d="M679.908 221.585C682.335 221.585 684.302 219.618 684.302 217.192C684.302 214.765 682.335 212.798 679.908 212.798C677.482 212.798 675.515 214.765 675.515 217.192C675.515 219.618 677.482 221.585 679.908 221.585Z" fill="white"/>
<path d="M692.951 211.622C694.117 211.622 695.062 210.677 695.062 209.512C695.062 208.346 694.117 207.401 692.951 207.401C691.786 207.401 690.841 208.346 690.841 209.512C690.841 210.677 691.786 211.622 692.951 211.622Z" fill="white"/>
<path d="M692.914 209.448L679.908 217.192" stroke="white" stroke-width="1.43392" stroke-miterlimit="10"/>
<path d="M687.812 235.451C690.239 235.451 692.206 233.484 692.206 231.058C692.206 228.631 690.239 226.664 687.812 226.664C685.386 226.664 683.419 228.631 683.419 231.058C683.419 233.484 685.386 235.451 687.812 235.451Z" fill="white"/>
<path d="M700.852 225.488C702.018 225.488 702.963 224.543 702.963 223.378C702.963 222.212 702.018 221.267 700.852 221.267C699.687 221.267 698.742 222.212 698.742 223.378C698.742 224.543 699.687 225.488 700.852 225.488Z" fill="white"/>
<path d="M700.815 223.315L687.812 231.058" stroke="white" stroke-width="1.43392" stroke-miterlimit="10"/>
<path d="M725.209 245.56C728.567 245.56 731.289 242.838 731.289 239.481C731.289 236.123 728.567 233.401 725.209 233.401C721.851 233.401 719.129 236.123 719.129 239.481C719.129 242.838 721.851 245.56 725.209 245.56Z" fill="white"/>
<path d="M725.094 260C726.239 260 727.168 259.072 727.168 257.927C727.168 256.782 726.239 255.853 725.094 255.853C723.949 255.853 723.021 256.782 723.021 257.927C723.021 259.072 723.949 260 725.094 260Z" fill="white"/>
<path d="M725.209 239.481L725.094 257.927" stroke="white" stroke-width="1.43392" stroke-miterlimit="10"/>
<path d="M741.091 232.219C743.635 232.219 745.697 230.157 745.697 227.613C745.697 225.07 743.635 223.008 741.091 223.008C738.547 223.008 736.485 225.07 736.485 227.613C736.485 230.157 738.547 232.219 741.091 232.219Z" fill="white"/>
<path d="M741.017 247.76C742.162 247.76 743.09 246.832 743.09 245.687C743.09 244.541 742.162 243.613 741.017 243.613C739.871 243.613 738.943 244.541 738.943 245.687C738.943 246.832 739.871 247.76 741.017 247.76Z" fill="white"/>
<path d="M741.171 227.034L741.017 245.687" stroke="white" stroke-width="1.43392" stroke-miterlimit="10"/>
<path d="M717.104 251.253C717.676 251.253 718.14 250.79 718.14 250.218C718.14 249.646 717.676 249.182 717.104 249.182C716.533 249.182 716.069 249.646 716.069 250.218C716.069 250.79 716.533 251.253 717.104 251.253Z" fill="white"/>
<path d="M733.121 251.236C733.693 251.236 734.157 250.772 734.157 250.201C734.157 249.629 733.693 249.165 733.121 249.165C732.55 249.165 732.086 249.629 732.086 250.201C732.086 250.772 732.55 251.236 733.121 251.236Z" fill="white"/>
<path d="M709.178 231.737C711.721 231.737 713.783 229.675 713.783 227.132C713.783 224.588 711.721 222.526 709.178 222.526C706.634 222.526 704.572 224.588 704.572 227.132C704.572 229.675 706.634 231.737 709.178 231.737Z" fill="white"/>
<path d="M709.103 247.631C710.248 247.631 711.177 246.703 711.177 245.558C711.177 244.412 710.248 243.484 709.103 243.484C707.958 243.484 707.03 244.412 707.03 245.558C707.03 246.703 707.958 247.631 709.103 247.631Z" fill="white"/>
<path d="M709.181 227.043L709.103 245.558" stroke="white" stroke-width="1.43392" stroke-miterlimit="10"/>
<path d="M827.246 742.894C837.423 742.894 845.672 734.645 845.672 724.468C845.672 714.292 837.423 706.042 827.246 706.042C817.07 706.042 808.82 714.292 808.82 724.468C808.82 734.645 817.07 742.894 827.246 742.894Z" stroke="#363F4A" stroke-width="4.30177" stroke-miterlimit="10"/>
<path d="M868.038 704.571C868.038 707.93 865.317 710.651 861.959 710.651C858.6 710.651 855.879 707.93 855.879 704.571C855.879 701.213 858.6 698.491 861.959 698.491C865.317 698.491 868.038 701.213 868.038 704.571Z" fill="#363F4A"/>
<path d="M879.989 695.314C879.989 696.458 879.06 697.387 877.915 697.387C876.771 697.387 875.842 696.458 875.842 695.314C875.842 694.17 876.771 693.24 877.915 693.24C879.06 693.24 879.989 694.17 879.989 695.314Z" fill="#363F4A"/>
<path d="M861.959 704.571L877.915 695.314" stroke="#363F4A" stroke-width="1.43392" stroke-miterlimit="10"/>
<path d="M864.15 724.247C864.15 726.791 862.088 728.853 859.544 728.853C857 728.853 854.938 726.791 854.938 724.247C854.938 721.704 857 719.642 859.544 719.642C862.088 719.642 864.15 721.704 864.15 724.247Z" fill="#363F4A"/>
<path d="M875.194 717.284C876.339 717.284 877.267 716.356 877.267 715.211C877.267 714.066 876.339 713.137 875.194 713.137C874.049 713.137 873.12 714.066 873.12 715.211C873.12 716.356 874.049 717.284 875.194 717.284Z" fill="#363F4A"/>
<path d="M859.082 724.606L875.194 715.211" stroke="#363F4A" stroke-width="1.43392" stroke-miterlimit="10"/>
<path d="M868.294 692.202C868.294 692.776 867.829 693.237 867.258 693.237C866.688 693.237 866.223 692.773 866.223 692.202C866.223 691.631 866.688 691.167 867.258 691.167C867.829 691.167 868.294 691.631 868.294 692.202Z" fill="#363F4A"/>
<path d="M876.232 706.117C876.232 706.691 875.767 707.152 875.197 707.152C874.626 707.152 874.161 706.688 874.161 706.117C874.161 705.546 874.626 705.082 875.197 705.082C875.767 705.082 876.232 705.546 876.232 706.117Z" fill="#363F4A"/>
<path d="M847.889 696.788C847.889 699.332 845.827 701.394 843.283 701.394C840.739 701.394 838.677 699.332 838.677 696.788C838.677 694.244 840.739 692.182 843.283 692.182C845.827 692.182 847.889 694.244 847.889 696.788V696.788Z" fill="#363F4A"/>
<path d="M859.24 689.647C860.385 689.647 861.313 688.719 861.313 687.573C861.313 686.428 860.385 685.5 859.24 685.5C858.095 685.5 857.166 686.428 857.166 687.573C857.166 688.719 858.095 689.647 859.24 689.647Z" fill="#363F4A"/>
<path d="M843.203 696.831L859.24 687.573" stroke="#363F4A" stroke-width="1.43392" stroke-miterlimit="10"/>
<path d="M792.537 710.651C795.894 710.651 798.616 707.929 798.616 704.571C798.616 701.213 795.894 698.491 792.537 698.491C789.179 698.491 786.457 701.213 786.457 704.571C786.457 707.929 789.179 710.651 792.537 710.651Z" fill="#363F4A"/>
<path d="M776.58 697.387C777.725 697.387 778.653 696.459 778.653 695.314C778.653 694.169 777.725 693.24 776.58 693.24C775.435 693.24 774.507 694.169 774.507 695.314C774.507 696.459 775.435 697.387 776.58 697.387Z" fill="#363F4A"/>
<path d="M792.537 704.571L776.58 695.314" stroke="#363F4A" stroke-width="1.43392" stroke-miterlimit="10"/>
<path d="M794.951 728.853C797.495 728.853 799.557 726.791 799.557 724.247C799.557 721.704 797.495 719.642 794.951 719.642C792.408 719.642 790.346 721.704 790.346 724.247C790.346 726.791 792.408 728.853 794.951 728.853Z" fill="#363F4A"/>
<path d="M779.299 717.284C780.444 717.284 781.372 716.356 781.372 715.211C781.372 714.066 780.444 713.137 779.299 713.137C778.154 713.137 777.225 714.066 777.225 715.211C777.225 716.356 778.154 717.284 779.299 717.284Z" fill="#363F4A"/>
<path d="M795.413 724.606L779.299 715.211" stroke="#363F4A" stroke-width="1.43392" stroke-miterlimit="10"/>
<path d="M787.24 693.237C787.812 693.237 788.275 692.774 788.275 692.202C788.275 691.63 787.812 691.167 787.24 691.167C786.668 691.167 786.204 691.63 786.204 692.202C786.204 692.774 786.668 693.237 787.24 693.237Z" fill="#363F4A"/>
<path d="M779.299 707.152C779.87 707.152 780.334 706.689 780.334 706.117C780.334 705.545 779.87 705.082 779.299 705.082C778.727 705.082 778.263 705.545 778.263 706.117C778.263 706.689 778.727 707.152 779.299 707.152Z" fill="#363F4A"/>
<path d="M811.212 701.394C813.756 701.394 815.818 699.331 815.818 696.788C815.818 694.244 813.756 692.182 811.212 692.182C808.668 692.182 806.606 694.244 806.606 696.788C806.606 699.331 808.668 701.394 811.212 701.394Z" fill="#363F4A"/>
<path d="M795.255 689.647C796.401 689.647 797.329 688.719 797.329 687.573C797.329 686.428 796.401 685.5 795.255 685.5C794.11 685.5 793.182 686.428 793.182 687.573C793.182 688.719 794.11 689.647 795.255 689.647Z" fill="#363F4A"/>
<path d="M811.292 696.831L795.255 687.573" stroke="#363F4A" stroke-width="1.43392" stroke-miterlimit="10"/>
<path d="M827.152 688.655C827.723 688.655 828.187 688.191 828.187 687.619C828.187 687.048 827.723 686.584 827.152 686.584C826.58 686.584 826.116 687.048 826.116 687.619C826.116 688.191 826.58 688.655 827.152 688.655Z" fill="#363F4A"/>
<path d="M827.246 669.787C829.673 669.787 831.64 667.82 831.64 665.394C831.64 662.967 829.673 661 827.246 661C824.82 661 822.853 662.967 822.853 665.394C822.853 667.82 824.82 669.787 827.246 669.787Z" fill="#363F4A"/>
<path d="M827.152 682.638C828.317 682.638 829.262 681.693 829.262 680.527C829.262 679.361 828.317 678.416 827.152 678.416C825.986 678.416 825.041 679.361 825.041 680.527C825.041 681.693 825.986 682.638 827.152 682.638Z" fill="#363F4A"/>
<path d="M827.223 680.527L827.246 665.394" stroke="#363F4A" stroke-width="1.43392" stroke-miterlimit="10"/>
<path d="M835.147 680.937C837.574 680.937 839.541 678.97 839.541 676.544C839.541 674.117 837.574 672.15 835.147 672.15C832.721 672.15 830.754 674.117 830.754 676.544C830.754 678.97 832.721 680.937 835.147 680.937Z" fill="#363F4A"/>
<path d="M835.05 693.788C836.215 693.788 837.16 692.843 837.16 691.678C837.16 690.512 836.215 689.567 835.05 689.567C833.884 689.567 832.939 690.512 832.939 691.678C832.939 692.843 833.884 693.788 835.05 693.788Z" fill="#363F4A"/>
<path d="M835.121 691.677L835.147 676.544" stroke="#363F4A" stroke-width="1.43392" stroke-miterlimit="10"/>
<path d="M819.19 680.608C821.617 680.608 823.584 678.64 823.584 676.214C823.584 673.787 821.617 671.82 819.19 671.82C816.764 671.82 814.797 673.787 814.797 676.214C814.797 678.64 816.764 680.608 819.19 680.608Z" fill="#363F4A"/>
<path d="M819.093 693.458C820.259 693.458 821.204 692.513 821.204 691.348C821.204 690.182 820.259 689.237 819.093 689.237C817.927 689.237 816.982 690.182 816.982 691.348C816.982 692.513 817.927 693.458 819.093 693.458Z" fill="#363F4A"/>
<path d="M819.167 691.348L819.19 676.214" stroke="#363F4A" stroke-width="1.43392" stroke-miterlimit="10"/>
<path d="M859.26 743.757C859.832 743.757 860.295 743.294 860.295 742.722C860.295 742.15 859.832 741.687 859.26 741.687C858.688 741.687 858.225 742.15 858.225 742.722C858.225 743.294 858.688 743.757 859.26 743.757Z" fill="#363F4A"/>
<path d="M878.489 758.26C880.915 758.26 882.882 756.293 882.882 753.867C882.882 751.44 880.915 749.473 878.489 749.473C876.062 749.473 874.095 751.44 874.095 753.867C874.095 756.293 876.062 758.26 878.489 758.26Z" fill="#363F4A"/>
<path d="M865.409 748.363C866.574 748.363 867.519 747.418 867.519 746.252C867.519 745.087 866.574 744.142 865.409 744.142C864.243 744.142 863.298 745.087 863.298 746.252C863.298 747.418 864.243 748.363 865.409 748.363Z" fill="#363F4A"/>
<path d="M865.374 746.313L878.489 753.867" stroke="#363F4A" stroke-width="1.43392" stroke-miterlimit="10"/>
<path d="M864.887 759.565C867.313 759.565 869.28 757.598 869.28 755.172C869.28 752.745 867.313 750.778 864.887 750.778C862.46 750.778 860.493 752.745 860.493 755.172C860.493 757.598 862.46 759.565 864.887 759.565Z" fill="#363F4A"/>
<path d="M851.806 749.665C852.972 749.665 853.917 748.72 853.917 747.555C853.917 746.389 852.972 745.444 851.806 745.444C850.641 745.444 849.696 746.389 849.696 747.555C849.696 748.72 850.641 749.665 851.806 749.665Z" fill="#363F4A"/>
<path d="M851.772 747.618L864.887 755.172" stroke="#363F4A" stroke-width="1.43392" stroke-miterlimit="10"/>
<path d="M873.115 745.888C875.541 745.888 877.508 743.921 877.508 741.495C877.508 739.068 875.541 737.101 873.115 737.101C870.688 737.101 868.721 739.068 868.721 741.495C868.721 743.921 870.688 745.888 873.115 745.888Z" fill="#363F4A"/>
<path d="M860.034 735.989C861.2 735.989 862.145 735.044 862.145 733.878C862.145 732.712 861.2 731.767 860.034 731.767C858.869 731.767 857.924 732.712 857.924 733.878C857.924 735.044 858.869 735.989 860.034 735.989Z" fill="#363F4A"/>
<path d="M859.997 733.941L873.115 741.495" stroke="#363F4A" stroke-width="1.43392" stroke-miterlimit="10"/>
<path d="M795.519 744.408C796.091 744.408 796.555 743.945 796.555 743.373C796.555 742.801 796.091 742.338 795.519 742.338C794.947 742.338 794.484 742.801 794.484 743.373C794.484 743.945 794.947 744.408 795.519 744.408Z" fill="#363F4A"/>
<path d="M776.394 759.086C778.82 759.086 780.787 757.119 780.787 754.693C780.787 752.266 778.82 750.299 776.394 750.299C773.967 750.299 772 752.266 772 754.693C772 757.119 773.967 759.086 776.394 759.086Z" fill="#363F4A"/>
<path d="M789.434 749.123C790.599 749.123 791.544 748.178 791.544 747.012C791.544 745.847 790.599 744.902 789.434 744.902C788.268 744.902 787.323 745.847 787.323 747.012C787.323 748.178 788.268 749.123 789.434 749.123Z" fill="#363F4A"/>
<path d="M789.396 746.949L776.394 754.693" stroke="#363F4A" stroke-width="1.43392" stroke-miterlimit="10"/>
<path d="M781.908 746.585C784.335 746.585 786.302 744.618 786.302 742.192C786.302 739.765 784.335 737.798 781.908 737.798C779.482 737.798 777.515 739.765 777.515 742.192C777.515 744.618 779.482 746.585 781.908 746.585Z" fill="#363F4A"/>
<path d="M794.951 736.622C796.117 736.622 797.062 735.677 797.062 734.512C797.062 733.346 796.117 732.401 794.951 732.401C793.786 732.401 792.841 733.346 792.841 734.512C792.841 735.677 793.786 736.622 794.951 736.622Z" fill="#363F4A"/>
<path d="M794.914 734.449L781.908 742.192" stroke="#363F4A" stroke-width="1.43392" stroke-miterlimit="10"/>
<path d="M789.812 760.451C792.239 760.451 794.206 758.484 794.206 756.058C794.206 753.631 792.239 751.664 789.812 751.664C787.386 751.664 785.419 753.631 785.419 756.058C785.419 758.484 787.386 760.451 789.812 760.451Z" fill="#363F4A"/>
<path d="M802.852 750.488C804.018 750.488 804.963 749.543 804.963 748.378C804.963 747.212 804.018 746.267 802.852 746.267C801.687 746.267 800.742 747.212 800.742 748.378C800.742 749.543 801.687 750.488 802.852 750.488Z" fill="#363F4A"/>
<path d="M802.815 748.315L789.812 756.058" stroke="#363F4A" stroke-width="1.43392" stroke-miterlimit="10"/>
<path d="M827.209 770.561C830.567 770.561 833.289 767.839 833.289 764.481C833.289 761.123 830.567 758.401 827.209 758.401C823.851 758.401 821.129 761.123 821.129 764.481C821.129 767.839 823.851 770.561 827.209 770.561Z" fill="#363F4A"/>
<path d="M827.094 785C828.239 785 829.168 784.072 829.168 782.927C829.168 781.782 828.239 780.853 827.094 780.853C825.949 780.853 825.021 781.782 825.021 782.927C825.021 784.072 825.949 785 827.094 785Z" fill="#363F4A"/>
<path d="M827.209 764.481L827.094 782.927" stroke="#363F4A" stroke-width="1.43392" stroke-miterlimit="10"/>
<path d="M843.091 757.219C845.635 757.219 847.697 755.157 847.697 752.613C847.697 750.07 845.635 748.008 843.091 748.008C840.547 748.008 838.485 750.07 838.485 752.613C838.485 755.157 840.547 757.219 843.091 757.219Z" fill="#363F4A"/>
<path d="M843.017 772.76C844.162 772.76 845.09 771.832 845.09 770.687C845.09 769.541 844.162 768.613 843.017 768.613C841.871 768.613 840.943 769.541 840.943 770.687C840.943 771.832 841.871 772.76 843.017 772.76Z" fill="#363F4A"/>
<path d="M843.171 752.034L843.016 770.687" stroke="#363F4A" stroke-width="1.43392" stroke-miterlimit="10"/>
<path d="M819.104 776.253C819.676 776.253 820.14 775.79 820.14 775.218C820.14 774.646 819.676 774.182 819.104 774.182C818.533 774.182 818.069 774.646 818.069 775.218C818.069 775.79 818.533 776.253 819.104 776.253Z" fill="#363F4A"/>
<path d="M835.121 776.236C835.693 776.236 836.157 775.772 836.157 775.201C836.157 774.629 835.693 774.165 835.121 774.165C834.55 774.165 834.086 774.629 834.086 775.201C834.086 775.772 834.55 776.236 835.121 776.236Z" fill="#363F4A"/>
<path d="M811.178 756.737C813.721 756.737 815.783 754.675 815.783 752.132C815.783 749.588 813.721 747.526 811.178 747.526C808.634 747.526 806.572 749.588 806.572 752.132C806.572 754.675 808.634 756.737 811.178 756.737Z" fill="#363F4A"/>
<path d="M811.103 772.631C812.248 772.631 813.177 771.703 813.177 770.558C813.177 769.412 812.248 768.484 811.103 768.484C809.958 768.484 809.03 769.412 809.03 770.558C809.03 771.703 809.958 772.631 811.103 772.631Z" fill="#363F4A"/>
<path d="M811.181 752.043L811.103 770.558" stroke="#363F4A" stroke-width="1.43392" stroke-miterlimit="10"/>
<defs>
<linearGradient id="paint0_linear_1817_2182" x1="275.04" y1="505.68" x2="536.34" y2="506.19" gradientUnits="userSpaceOnUse">
<stop stop-color="#00E4A2"/>
<stop offset="1" stop-color="#EFD0FF" stop-opacity="0"/>
</linearGradient>
<linearGradient id="paint1_linear_1817_2182" x1="724.93" y1="57.58" x2="724.93" y2="981.4" gradientUnits="userSpaceOnUse">
<stop stop-color="#EFD0FF"/>
<stop offset="0.17" stop-color="#ECD0FE"/>
<stop offset="0.3" stop-color="#E2D1FA"/>
<stop offset="0.42" stop-color="#D1D3F3"/>
<stop offset="0.54" stop-color="#B9D5EA"/>
<stop offset="0.65" stop-color="#9AD7DE"/>
<stop offset="0.76" stop-color="#74DACF"/>
<stop offset="0.86" stop-color="#48DEBE"/>
<stop offset="0.96" stop-color="#15E2AA"/>
<stop offset="1" stop-color="#00E4A2"/>
</linearGradient>
<linearGradient id="paint2_linear_1817_2182" x1="550.18" y1="863.75" x2="899.16" y2="863.75" gradientUnits="userSpaceOnUse">
<stop stop-color="#40EBB9"/>
<stop offset="0.5" stop-color="#00E4A2"/>
<stop offset="1" stop-color="#38EAB6"/>
</linearGradient>
<radialGradient id="paint3_radial_1817_2182" cx="0" cy="0" r="1" gradientUnits="userSpaceOnUse" gradientTransform="translate(725.33 198.24) scale(73.63)">
<stop stop-color="#4A525C"/>
<stop offset="0.15" stop-color="#404852"/>
<stop offset="0.49" stop-color="#313841"/>
<stop offset="0.75" stop-color="#2B323B"/>
<stop offset="1" stop-color="#2F3640"/>
</radialGradient>
<linearGradient id="paint4_linear_1817_2182" x1="130.41" y1="869.312" x2="164.182" y2="951.74" gradientUnits="userSpaceOnUse">
<stop stop-color="#00E4A2"/>
<stop offset="1" stop-color="#EFD0FF"/>
</linearGradient>
<linearGradient id="paint5_linear_1817_2182" x1="177.52" y1="884.39" x2="175.49" y2="770.38" gradientUnits="userSpaceOnUse">
<stop stop-color="#363F4A" stop-opacity="0"/>
<stop offset="0.19" stop-color="#31363E" stop-opacity="0.28"/>
<stop offset="0.67" stop-color="#272528" stop-opacity="0.81"/>
<stop offset="1" stop-color="#231F20"/>
</linearGradient>
<linearGradient id="paint6_linear_1817_2182" x1="111.31" y1="678.22" x2="110.04" y2="607.22" gradientUnits="userSpaceOnUse">
<stop stop-color="#363F4A" stop-opacity="0"/>
<stop offset="0.19" stop-color="#31363E" stop-opacity="0.28"/>
<stop offset="0.67" stop-color="#272528" stop-opacity="0.81"/>
<stop offset="1" stop-color="#231F20"/>
</linearGradient>
<linearGradient id="paint7_linear_1817_2182" x1="207.14" y1="620.25" x2="206.53" y2="585.78" gradientUnits="userSpaceOnUse">
<stop stop-color="#363F4A" stop-opacity="0"/>
<stop offset="0.19" stop-color="#31363E" stop-opacity="0.28"/>
<stop offset="0.67" stop-color="#272528" stop-opacity="0.81"/>
<stop offset="1" stop-color="#231F20"/>
</linearGradient>
<linearGradient id="paint8_linear_1817_2182" x1="281.9" y1="576.06" x2="317.5" y2="576.06" gradientUnits="userSpaceOnUse">
<stop stop-color="#EFD0FF"/>
<stop offset="0.11" stop-color="#EAD0FD"/>
<stop offset="0.24" stop-color="#DDD2F8"/>
<stop offset="0.38" stop-color="#C6D3EF"/>
<stop offset="0.52" stop-color="#A6D6E3"/>
<stop offset="0.66" stop-color="#7DDAD3"/>
<stop offset="0.81" stop-color="#4BDEBF"/>
<stop offset="0.96" stop-color="#11E3A9"/>
<stop offset="1" stop-color="#00E4A2"/>
</linearGradient>
</defs>
</svg>
