<svg xmlns="http://www.w3.org/2000/svg" viewBox="0 0 170.64 170.65"><defs><style>.cls-1{fill:#f42525;opacity:0;}.cls-2{fill:#fff;}</style></defs><g id="Layer_2" data-name="Layer 2"><g id="Layer_2-2" data-name="Layer 2"><rect class="cls-1" width="170.64" height="170.64"/><g id="Layer_2-3" data-name="Layer 2"><g id="Layer_1-2" data-name="Layer 1-2"><path class="cls-2" d="M57.25,118.29a6.4,6.4,0,0,1-6.36-5.36L33,7.51a6.32,6.32,0,0,1,1.1-4.8,6.45,6.45,0,0,1,11.6,2.65L63.6,110.77a6.36,6.36,0,0,1-1.11,4.8A6.52,6.52,0,0,1,57.25,118.29Z"/><path class="cls-2" d="M87.3,69.66A50.14,50.14,0,0,0,59.55,78l2.17,12.76A39,39,0,1,1,49.2,111.82L45.74,91.51A50.49,50.49,0,1,0,87.3,69.66Z"/><circle class="cls-2" cx="84.54" cy="142.78" r="6.88"/><circle class="cls-2" cx="106.03" cy="134.77" r="6.88"/><circle class="cls-2" cx="89.13" cy="120.02" r="6.88"/><circle class="cls-2" cx="67.78" cy="127.05" r="6.88"/><circle class="cls-2" cx="110.43" cy="112.97" r="6.88"/><circle class="cls-2" cx="93.73" cy="97.26" r="6.88"/><circle class="cls-2" cx="72.16" cy="105.25" r="6.88"/></g></g></g></g></svg>