<?xml version="1.0" encoding="UTF-8"?><svg id="Layer_1" xmlns="http://www.w3.org/2000/svg" xmlns:xlink="http://www.w3.org/1999/xlink" viewBox="0 0 346.41 400"><defs><style>.cls-1{fill:url(#linear-gradient);}</style><linearGradient id="linear-gradient" x1="-.77" y1="98.18" x2="342.11" y2="298.84" gradientTransform="matrix(1, 0, 0, 1, 0, 0)" gradientUnits="userSpaceOnUse"><stop offset="0" stop-color="#ebd0fd"/><stop offset=".14" stop-color="#e6d0fb"/><stop offset=".28" stop-color="#d9d1f6"/><stop offset=".43" stop-color="#c4d3ee"/><stop offset=".58" stop-color="#a7d5e2"/><stop offset=".74" stop-color="#80d8d4"/><stop offset=".89" stop-color="#52dcc2"/><stop offset="1" stop-color="#2ee0b4"/></linearGradient></defs><path class="cls-1" d="M227.51,159.03l79.32,118.05-31.27,63.82-57.95,33.45-63.07-77.37,72.96-137.96Z"/><path class="cls-1" d="M84.36,209.42L0,105.26v-5.26L135.46,21.79l23,35.81L84.36,209.42Z"/><path class="cls-1" d="M346.41,100l-66.18-38.21-42.43,77.26,79.1,117.71,29.51-59.94V100Z"/><path class="cls-1" d="M140.48,279.15l-42.8-54.67L171.05,75.23l43.52,64.38-74.09,139.55Z"/><path class="cls-1" d="M0,136.23l73.22,90.78-42.66,90.64L0,300V136.23Z"/><path class="cls-1" d="M87.61,245.35l3.6,4.32,38.12,47.12-31.7,59.59-50.23-29s13.23-27.35,19.34-40.3c6.47-13.67,20.86-41.72,20.86-41.72Z"/><path class="cls-1" d="M225.36,121.26l-45.28-65.64,20.11-39.74,61.8,35.37-36.62,70.01Z"/><path class="cls-1" d="M143.71,314.4c19.06,23.74,56.35,70.09,56.35,70.09l-26.86,15.51-55.03-32.01-2.79-1.57s18.98-34.76,27.61-50.58c0-.36,.36-.72,.72-1.44Z"/><path class="cls-1" d="M346.41,238.89v61.11c-.36,0-17.62-25.52-17.62-25.52l17.62-35.58Z"/><path class="cls-1" d="M168.53,36.02c-5.39-7.91-10.43-15.83-15.83-23.74,2.52-1.44,20.5-12.29,20.5-12.29l9.71,5.61s-13.31,27.9-14.39,30.42Z"/><path class="cls-1" d="M318.87,295.7l9.73,14.59-22.31,12.88,12.59-27.47Z"/></svg>