<svg width="868" height="440" viewBox="0 0 868 440" fill="none" xmlns="http://www.w3.org/2000/svg">
<g clip-path="url(#clip0_1817_1691)">
<path opacity="0.7" d="M59.17 112.87V327.87L245.37 435.37L431.57 327.87V112.87L245.37 5.37L59.17 112.87Z" fill="url(#paint0_linear_1817_1691)"/>
<path opacity="0.15" d="M71.87 320.54V120.2L245.37 20.03L418.87 120.2V320.54L245.37 420.71L71.87 320.54Z" fill="#363F4A"/>
<g opacity="0.8">
<path d="M430.286 151.042L287.322 199.739L289.901 207.312L432.865 158.615L430.286 151.042Z" fill="#EFD0FF"/>
<path d="M190.511 224.992L84.5873 253.295L86.6524 261.024L192.576 232.721L190.511 224.992Z" fill="#EFD0FF"/>
<path d="M193.06 37.343L51.8723 259.647L58.6254 263.936L199.813 41.632L193.06 37.343Z" fill="url(#paint1_linear_1817_1691)"/>
<path d="M347.388 54.3981L310.133 386.012L318.083 386.905L355.338 55.2912L347.388 54.3981Z" fill="url(#paint2_linear_1817_1691)"/>
<path d="M272.366 263.062L264.832 265.754L309.541 390.897L317.075 388.206L272.366 263.062Z" fill="#EFD0FF"/>
<path d="M318.535 247.004L314.361 253.829L402.52 307.747L406.694 300.922L318.535 247.004Z" fill="#EFD0FF"/>
<path d="M96.5196 116.783L92.4281 123.658L217.708 198.221L221.799 191.347L96.5196 116.783Z" fill="#EFD0FF"/>
<path d="M208.872 271.375L171.549 350.726L178.788 354.131L216.111 274.78L208.872 271.375Z" fill="#00E4A2"/>
<path d="M204.555 37.0177L196.751 38.7765L224.504 161.928L232.308 160.169L204.555 37.0177Z" fill="#00E4A2"/>
</g>
<path d="M198.55 6.39001L169.66 19.36L166.45 50.87L192.13 69.41L221.02 56.43L224.24 24.93L198.55 6.39001Z" fill="#00E4A2"/>
<path d="M197.62 15.58L215.81 28.71L213.53 51L193.07 60.19L174.87 47.06L177.15 24.74L197.62 15.55M198.55 6.35999L169.66 19.36L166.45 50.87L192.13 69.41L221.02 56.41L224.24 24.9L198.55 6.38999V6.35999Z" fill="url(#paint3_linear_1817_1691)"/>
<path d="M424.35 123.59L401.95 145.99L410.15 176.58L440.75 184.78L463.14 162.38L454.94 131.79L424.35 123.59Z" fill="#EFD0FF"/>
<path d="M426.74 132.51L448.41 138.32L454.22 160L438.36 175.86L416.68 170.06L410.88 148.39L426.74 132.52M424.35 123.6L402 146L410.19 176.59L440.79 184.79L463.18 162.39L454.98 131.8L424.39 123.6H424.35Z" fill="url(#paint4_linear_1817_1691)"/>
<path d="M310.72 365.38L285.01 383.88L288.17 415.4L317.04 428.41L342.75 409.92L339.59 378.4L310.72 365.38Z" fill="#EFD0FF"/>
<path d="M311.64 374.58L332.09 383.8L334.33 406.12L316.12 419.22L295.67 410L293.43 387.68L311.64 374.58ZM310.72 365.38L285 383.88L288.16 415.4L317.03 428.4L342.75 409.91L339.58 378.39L310.71 365.39L310.72 365.38Z" fill="url(#paint5_linear_1817_1691)"/>
<path d="M93.99 68.43H49.76L27.64 106.73L49.76 145.04H93.99L116.1 106.74L93.99 68.43Z" fill="#EFD0FF"/>
<path d="M54.38 76.43H89.38L106.87 106.74L89.37 137H54.37L36.87 106.7L54.37 76.39M49.75 68.39L27.64 106.74L49.76 145H94L116.11 106.7L94 68.43L49.75 68.39Z" fill="url(#paint6_linear_1817_1691)"/>
<path d="M356.7 2.03998L308.3 23.77L302.92 76.55L345.94 107.6L394.34 85.87L399.72 33.09L356.7 2.03998Z" fill="#00E4A2"/>
<path d="M355.76 11.23L391.29 36.87L386.85 80.47L346.85 98.41L311.35 72.77L315.79 29.18L355.79 11.23M356.7 2L308.3 23.77L302.92 76.55L345.92 107.6L394.32 85.87L399.7 33.09L356.7 2Z" fill="url(#paint7_linear_1817_1691)"/>
<path d="M162 305.79L111.16 342.37L117.41 404.68L174.5 430.43L225.34 393.85L219.09 331.53L162 305.79Z" fill="#00E4A2"/>
<path d="M162.92 315L211.59 336.95L216.92 390.07L173.58 421.25L124.91 399.31L119.58 346.18L162.92 315ZM162 305.81L111.16 342.39L117.41 404.7L174.5 430.45L225.34 393.87L219.09 331.55L162 305.79V305.81Z" fill="url(#paint8_linear_1817_1691)"/>
<path d="M431.42 257.59L376.77 288.19L375.95 350.81L429.77 382.84L484.41 352.24L485.24 289.62L431.42 257.59Z" fill="#00E4A2"/>
<path d="M431.3 266.83L477.18 294.13L476.47 347.52L429.89 373.6L384 346.3L384.7 292.91L431.29 266.83M431.41 257.59L376.76 288.19L376 350.81L429.82 382.81L484.46 352.21L485.29 289.59L431.47 257.59H431.41Z" fill="url(#paint9_linear_1817_1691)"/>
<path d="M44.33 205.45L1.01001 243.09L11.95 299.43L66.2 318.12L109.53 280.48L98.59 224.15L44.33 205.45Z" fill="#EFD0FF"/>
<path d="M46.09 214.52L91.61 230.2L100.79 277.47L64.44 309.05L18.92 293.37L9.74 246.1L46.09 214.52M44.33 205.45L1 243.09L12 299.43L66.26 318.12L109.57 280.48L98.59 224.15L44.33 205.45V205.45Z" fill="url(#paint10_linear_1817_1691)"/>
<path opacity="0.7" d="M831.362 186.717C872.847 145.231 872.847 77.9701 831.361 36.4847C789.876 -5.00067 722.615 -5.00068 681.13 36.4847C639.644 77.9701 639.644 145.231 681.13 186.717C722.615 228.202 789.876 228.202 831.362 186.717Z" fill="url(#paint11_linear_1817_1691)"/>
<path opacity="0.15" d="M756.24 208.89C809.972 208.89 853.53 165.332 853.53 111.6C853.53 57.8682 809.972 14.31 756.24 14.31C702.508 14.31 658.95 57.8682 658.95 111.6C658.95 165.332 702.508 208.89 756.24 208.89Z" fill="#363F4A"/>
<path opacity="0.7" d="M853.53 111.6C853.53 85.7971 843.28 61.051 825.034 42.8056C806.789 24.5602 782.043 14.31 756.24 14.31V208.89C782.043 208.89 806.789 198.64 825.034 180.394C843.28 162.149 853.53 137.403 853.53 111.6V111.6Z" fill="#EFD0FF"/>
<path opacity="0.7" d="M684.44 45.94C693.545 35.9581 704.635 27.9884 716.999 22.5416C729.364 17.0949 742.729 14.2911 756.24 14.31V111.6C721.7 80.56 706.69 67.19 684.44 45.94Z" fill="#00E4A2"/>
<path opacity="0.7" d="M858.8 399.48H653.69C651.105 399.48 649.01 401.575 649.01 404.16V430.69C649.01 433.275 651.105 435.37 653.69 435.37H858.8C861.385 435.37 863.48 433.275 863.48 430.69V404.16C863.48 401.575 861.385 399.48 858.8 399.48Z" fill="url(#paint12_linear_1817_1691)"/>
<path opacity="0.7" d="M659.4 431.13H812.3C815.095 431.13 817.36 428.865 817.36 426.07V408.78C817.36 405.985 815.095 403.72 812.3 403.72H659.4C656.605 403.72 654.34 405.985 654.34 408.78V426.07C654.34 428.865 656.605 431.13 659.4 431.13Z" fill="#00E4A2"/>
<path opacity="0.7" d="M858.8 352.56H653.69C651.105 352.56 649.01 354.655 649.01 357.24V383.77C649.01 386.355 651.105 388.45 653.69 388.45H858.8C861.385 388.45 863.48 386.355 863.48 383.77V357.24C863.48 354.655 861.385 352.56 858.8 352.56Z" fill="url(#paint13_linear_1817_1691)"/>
<path opacity="0.7" d="M657.45 384.21H747.9C750.07 384.21 751.83 382.45 751.83 380.28V360.73C751.83 358.559 750.07 356.8 747.9 356.8H657.45C655.279 356.8 653.52 358.559 653.52 360.73V380.28C653.52 382.45 655.279 384.21 657.45 384.21Z" fill="#EFD0FF"/>
<path opacity="0.7" d="M858.8 305.63H653.69C651.105 305.63 649.01 307.725 649.01 310.31V336.84C649.01 339.425 651.105 341.52 653.69 341.52H858.8C861.385 341.52 863.48 339.425 863.48 336.84V310.31C863.48 307.725 861.385 305.63 858.8 305.63Z" fill="url(#paint14_linear_1817_1691)"/>
<path opacity="0.7" d="M658.09 337.28H781.9C784.424 337.28 786.47 335.234 786.47 332.71V314.44C786.47 311.916 784.424 309.87 781.9 309.87H658.09C655.566 309.87 653.52 311.916 653.52 314.44V332.71C653.52 335.234 655.566 337.28 658.09 337.28Z" fill="#00E4A2"/>
<path d="M244.629 259.41C267.248 259.41 285.585 241.073 285.585 218.454C285.585 195.834 267.248 177.498 244.629 177.498C222.009 177.498 203.673 195.834 203.673 218.454C203.673 241.073 222.009 259.41 244.629 259.41Z" stroke="#363F4A" stroke-width="9.56173" stroke-miterlimit="10"/>
<path d="M335.3 174.228C335.3 181.692 329.25 187.741 321.786 187.741C314.321 187.741 308.272 181.692 308.272 174.228C308.272 166.763 314.321 160.714 321.786 160.714C329.25 160.714 335.3 166.763 335.3 174.228Z" fill="#363F4A"/>
<path d="M361.862 153.651C361.862 156.194 359.797 158.259 357.253 158.259C354.71 158.259 352.645 156.194 352.645 153.651C352.645 151.107 354.71 149.042 357.253 149.042C359.797 149.042 361.862 151.107 361.862 153.651Z" fill="#363F4A"/>
<path d="M321.786 174.228L357.253 153.651" stroke="#363F4A" stroke-width="3.18724" stroke-miterlimit="10"/>
<path d="M326.656 217.963C326.656 223.617 322.072 228.2 316.418 228.2C310.764 228.2 306.181 223.617 306.181 217.963C306.181 212.309 310.764 207.726 316.418 207.726C322.072 207.726 326.656 212.309 326.656 217.963Z" fill="#363F4A"/>
<path d="M351.204 202.486C353.749 202.486 355.813 200.422 355.813 197.877C355.813 195.332 353.749 193.268 351.204 193.268C348.658 193.268 346.595 195.332 346.595 197.877C346.595 200.422 348.658 202.486 351.204 202.486Z" fill="#363F4A"/>
<path d="M315.392 218.76L351.204 197.877" stroke="#363F4A" stroke-width="3.18724" stroke-miterlimit="10"/>
<path d="M335.867 146.734C335.867 148.009 334.834 149.036 333.566 149.036C332.297 149.036 331.264 148.003 331.264 146.734C331.264 145.466 332.297 144.433 333.566 144.433C334.834 144.433 335.867 145.466 335.867 146.734Z" fill="#363F4A"/>
<path d="M353.511 177.663C353.511 178.938 352.479 179.965 351.21 179.965C349.942 179.965 348.909 178.932 348.909 177.663C348.909 176.395 349.942 175.362 351.21 175.362C352.479 175.362 353.511 176.395 353.511 177.663Z" fill="#363F4A"/>
<path d="M290.512 156.927C290.512 162.581 285.929 167.165 280.275 167.165C274.621 167.165 270.038 162.581 270.038 156.927C270.038 151.273 274.621 146.69 280.275 146.69C285.929 146.69 290.512 151.273 290.512 156.927V156.927Z" fill="#363F4A"/>
<path d="M315.743 141.055C318.288 141.055 320.351 138.991 320.351 136.446C320.351 133.901 318.288 131.837 315.743 131.837C313.197 131.837 311.134 133.901 311.134 136.446C311.134 138.991 313.197 141.055 315.743 141.055Z" fill="#363F4A"/>
<path d="M280.096 157.023L315.743 136.446" stroke="#363F4A" stroke-width="3.18724" stroke-miterlimit="10"/>
<path d="M167.479 187.741C174.942 187.741 180.992 181.691 180.992 174.228C180.992 166.764 174.942 160.714 167.479 160.714C160.015 160.714 153.965 166.764 153.965 174.228C153.965 181.691 160.015 187.741 167.479 187.741Z" fill="#363F4A"/>
<path d="M132.011 158.259C134.556 158.259 136.62 156.196 136.62 153.651C136.62 151.105 134.556 149.042 132.011 149.042C129.466 149.042 127.402 151.105 127.402 153.651C127.402 156.196 129.466 158.259 132.011 158.259Z" fill="#363F4A"/>
<path d="M167.478 174.228L132.011 153.651" stroke="#363F4A" stroke-width="3.18724" stroke-miterlimit="10"/>
<path d="M172.846 228.2C178.5 228.2 183.083 223.617 183.083 217.963C183.083 212.309 178.5 207.726 172.846 207.726C167.192 207.726 162.608 212.309 162.608 217.963C162.608 223.617 167.192 228.2 172.846 228.2Z" fill="#363F4A"/>
<path d="M138.054 202.486C140.599 202.486 142.663 200.422 142.663 197.877C142.663 195.332 140.599 193.268 138.054 193.268C135.508 193.268 133.445 195.332 133.445 197.877C133.445 200.422 135.508 202.486 138.054 202.486Z" fill="#363F4A"/>
<path d="M173.872 218.76L138.054 197.877" stroke="#363F4A" stroke-width="3.18724" stroke-miterlimit="10"/>
<path d="M155.705 149.036C156.976 149.036 158.006 148.005 158.006 146.734C158.006 145.463 156.976 144.433 155.705 144.433C154.434 144.433 153.404 145.463 153.404 146.734C153.404 148.005 154.434 149.036 155.705 149.036Z" fill="#363F4A"/>
<path d="M138.054 179.965C139.325 179.965 140.355 178.934 140.355 177.663C140.355 176.392 139.325 175.362 138.054 175.362C136.783 175.362 135.753 176.392 135.753 177.663C135.753 178.934 136.783 179.965 138.054 179.965Z" fill="#363F4A"/>
<path d="M208.989 167.165C214.643 167.165 219.226 162.581 219.226 156.927C219.226 151.273 214.643 146.69 208.989 146.69C203.335 146.69 198.752 151.273 198.752 156.927C198.752 162.581 203.335 167.165 208.989 167.165Z" fill="#363F4A"/>
<path d="M173.521 141.055C176.067 141.055 178.13 138.991 178.13 136.446C178.13 133.901 176.067 131.837 173.521 131.837C170.976 131.837 168.913 133.901 168.913 136.446C168.913 138.991 170.976 141.055 173.521 141.055Z" fill="#363F4A"/>
<path d="M209.168 157.023L173.521 136.446" stroke="#363F4A" stroke-width="3.18724" stroke-miterlimit="10"/>
<path d="M244.418 138.849C245.689 138.849 246.72 137.819 246.72 136.548C246.72 135.277 245.689 134.247 244.418 134.247C243.148 134.247 242.117 135.277 242.117 136.548C242.117 137.819 243.148 138.849 244.418 138.849Z" fill="#363F4A"/>
<path d="M244.629 96.9114C250.022 96.9114 254.395 92.5392 254.395 87.1457C254.395 81.7523 250.022 77.38 244.629 77.38C239.235 77.38 234.863 81.7523 234.863 87.1457C234.863 92.5392 239.235 96.9114 244.629 96.9114Z" fill="#363F4A"/>
<path d="M244.418 125.475C247.01 125.475 249.11 123.375 249.11 120.784C249.11 118.193 247.01 116.092 244.418 116.092C241.827 116.092 239.727 118.193 239.727 120.784C239.727 123.375 241.827 125.475 244.418 125.475Z" fill="#363F4A"/>
<path d="M244.578 120.784L244.629 87.1458" stroke="#363F4A" stroke-width="3.18724" stroke-miterlimit="10"/>
<path d="M262.191 121.695C267.584 121.695 271.956 117.323 271.956 111.93C271.956 106.536 267.584 102.164 262.191 102.164C256.797 102.164 252.425 106.536 252.425 111.93C252.425 117.323 256.797 121.695 262.191 121.695Z" fill="#363F4A"/>
<path d="M261.974 150.259C264.565 150.259 266.665 148.159 266.665 145.568C266.665 142.977 264.565 140.876 261.974 140.876C259.383 140.876 257.282 142.977 257.282 145.568C257.282 148.159 259.383 150.259 261.974 150.259Z" fill="#363F4A"/>
<path d="M262.133 145.568L262.19 111.93" stroke="#363F4A" stroke-width="3.18724" stroke-miterlimit="10"/>
<path d="M226.723 120.962C232.116 120.962 236.489 116.59 236.489 111.197C236.489 105.803 232.116 101.431 226.723 101.431C221.329 101.431 216.957 105.803 216.957 111.197C216.957 116.59 221.329 120.962 226.723 120.962Z" fill="#363F4A"/>
<path d="M226.506 149.526C229.097 149.526 231.198 147.426 231.198 144.835C231.198 142.244 229.097 140.143 226.506 140.143C223.915 140.143 221.815 142.244 221.815 144.835C221.815 147.426 223.915 149.526 226.506 149.526Z" fill="#363F4A"/>
<path d="M226.672 144.835L226.723 111.197" stroke="#363F4A" stroke-width="3.18724" stroke-miterlimit="10"/>
<path d="M315.787 261.329C317.058 261.329 318.088 260.298 318.088 259.027C318.088 257.756 317.058 256.726 315.787 256.726C314.516 256.726 313.486 257.756 313.486 259.027C313.486 260.298 314.516 261.329 315.787 261.329Z" fill="#363F4A"/>
<path d="M358.528 293.564C363.922 293.564 368.294 289.192 368.294 283.799C368.294 278.405 363.922 274.033 358.528 274.033C353.135 274.033 348.762 278.405 348.762 283.799C348.762 289.192 353.135 293.564 358.528 293.564Z" fill="#363F4A"/>
<path d="M329.454 271.566C332.045 271.566 334.146 269.465 334.146 266.874C334.146 264.283 332.045 262.183 329.454 262.183C326.863 262.183 324.762 264.283 324.762 266.874C324.762 269.465 326.863 271.566 329.454 271.566Z" fill="#363F4A"/>
<path d="M329.378 267.008L358.528 283.799" stroke="#363F4A" stroke-width="3.18724" stroke-miterlimit="10"/>
<path d="M328.294 296.465C333.687 296.465 338.06 292.092 338.06 286.699C338.06 281.306 333.687 276.933 328.294 276.933C322.9 276.933 318.528 281.306 318.528 286.699C318.528 292.092 322.9 296.465 328.294 296.465Z" fill="#363F4A"/>
<path d="M299.22 274.46C301.811 274.46 303.912 272.36 303.912 269.768C303.912 267.177 301.811 265.077 299.22 265.077C296.629 265.077 294.528 267.177 294.528 269.768C294.528 272.36 296.629 274.46 299.22 274.46Z" fill="#363F4A"/>
<path d="M299.143 269.909L328.294 286.699" stroke="#363F4A" stroke-width="3.18724" stroke-miterlimit="10"/>
<path d="M346.582 266.065C351.976 266.065 356.348 261.692 356.348 256.299C356.348 250.906 351.976 246.533 346.582 246.533C341.189 246.533 336.817 250.906 336.817 256.299C336.817 261.692 341.189 266.065 346.582 266.065Z" fill="#363F4A"/>
<path d="M317.508 244.06C320.099 244.06 322.2 241.959 322.2 239.368C322.2 236.777 320.099 234.677 317.508 234.677C314.917 234.677 312.817 236.777 312.817 239.368C312.817 241.959 314.917 244.06 317.508 244.06Z" fill="#363F4A"/>
<path d="M317.425 239.509L346.582 256.299" stroke="#363F4A" stroke-width="3.18724" stroke-miterlimit="10"/>
<path d="M174.108 262.775C175.379 262.775 176.409 261.745 176.409 260.474C176.409 259.203 175.379 258.173 174.108 258.173C172.837 258.173 171.807 259.203 171.807 260.474C171.807 261.745 172.837 262.775 174.108 262.775Z" fill="#363F4A"/>
<path d="M131.596 295.4C136.99 295.4 141.362 291.028 141.362 285.634C141.362 280.241 136.99 275.869 131.596 275.869C126.203 275.869 121.831 280.241 121.831 285.634C121.831 291.028 126.203 295.4 131.596 295.4Z" fill="#363F4A"/>
<path d="M160.581 273.255C163.172 273.255 165.273 271.155 165.273 268.564C165.273 265.972 163.172 263.872 160.581 263.872C157.99 263.872 155.89 265.972 155.89 268.564C155.89 271.155 157.99 273.255 160.581 273.255Z" fill="#363F4A"/>
<path d="M160.498 268.423L131.596 285.634" stroke="#363F4A" stroke-width="3.18724" stroke-miterlimit="10"/>
<path d="M143.855 267.614C149.248 267.614 153.62 263.241 153.62 257.848C153.62 252.455 149.248 248.082 143.855 248.082C138.461 248.082 134.089 252.455 134.089 257.848C134.089 263.241 138.461 267.614 143.855 267.614Z" fill="#363F4A"/>
<path d="M172.846 245.469C175.437 245.469 177.537 243.368 177.537 240.777C177.537 238.186 175.437 236.086 172.846 236.086C170.255 236.086 168.154 238.186 168.154 240.777C168.154 243.368 170.255 245.469 172.846 245.469Z" fill="#363F4A"/>
<path d="M172.763 240.637L143.855 257.848" stroke="#363F4A" stroke-width="3.18724" stroke-miterlimit="10"/>
<path d="M161.423 298.434C166.816 298.434 171.188 294.062 171.188 288.669C171.188 283.275 166.816 278.903 161.423 278.903C156.029 278.903 151.657 283.275 151.657 288.669C151.657 294.062 156.029 298.434 161.423 298.434Z" fill="#363F4A"/>
<path d="M190.408 276.289C192.999 276.289 195.099 274.189 195.099 271.598C195.099 269.007 192.999 266.906 190.408 266.906C187.816 266.906 185.716 269.007 185.716 271.598C185.716 274.189 187.816 276.289 190.408 276.289Z" fill="#363F4A"/>
<path d="M190.325 271.458L161.423 288.669" stroke="#363F4A" stroke-width="3.18724" stroke-miterlimit="10"/>
<path d="M244.546 320.904C252.01 320.904 258.06 314.854 258.06 307.39C258.06 299.927 252.01 293.877 244.546 293.877C237.082 293.877 231.032 299.927 231.032 307.39C231.032 314.854 237.082 320.904 244.546 320.904Z" fill="#363F4A"/>
<path d="M244.291 353C246.836 353 248.9 350.936 248.9 348.391C248.9 345.846 246.836 343.782 244.291 343.782C241.746 343.782 239.682 345.846 239.682 348.391C239.682 350.936 241.746 353 244.291 353Z" fill="#363F4A"/>
<path d="M244.546 307.39L244.291 348.391" stroke="#363F4A" stroke-width="3.18724" stroke-miterlimit="10"/>
<path d="M279.848 291.25C285.502 291.25 290.085 286.667 290.085 281.013C290.085 275.359 285.502 270.776 279.848 270.776C274.194 270.776 269.61 275.359 269.61 281.013C269.61 286.667 274.194 291.25 279.848 291.25Z" fill="#363F4A"/>
<path d="M279.682 325.794C282.227 325.794 284.291 323.73 284.291 321.185C284.291 318.64 282.227 316.576 279.682 316.576C277.137 316.576 275.073 318.64 275.073 321.185C275.073 323.73 277.137 325.794 279.682 325.794Z" fill="#363F4A"/>
<path d="M280.026 279.725L279.682 321.185" stroke="#363F4A" stroke-width="3.18724" stroke-miterlimit="10"/>
<path d="M226.532 333.558C227.803 333.558 228.833 332.527 228.833 331.257C228.833 329.986 227.803 328.955 226.532 328.955C225.261 328.955 224.23 329.986 224.23 331.257C224.23 332.527 225.261 333.558 226.532 333.558Z" fill="#363F4A"/>
<path d="M262.133 333.52C263.404 333.52 264.434 332.489 264.434 331.218C264.434 329.948 263.404 328.917 262.133 328.917C260.862 328.917 259.832 329.948 259.832 331.218C259.832 332.489 260.862 333.52 262.133 333.52Z" fill="#363F4A"/>
<path d="M208.913 290.179C214.567 290.179 219.15 285.596 219.15 279.942C219.15 274.288 214.567 269.705 208.913 269.705C203.259 269.705 198.675 274.288 198.675 279.942C198.675 285.596 203.259 290.179 208.913 290.179Z" fill="#363F4A"/>
<path d="M208.747 325.507C211.292 325.507 213.356 323.443 213.356 320.898C213.356 318.353 211.292 316.289 208.747 316.289C206.202 316.289 204.138 318.353 204.138 320.898C204.138 323.443 206.202 325.507 208.747 325.507Z" fill="#363F4A"/>
<path d="M208.919 279.744L208.747 320.898" stroke="#363F4A" stroke-width="3.18724" stroke-miterlimit="10"/>
</g>
<defs>
<linearGradient id="paint0_linear_1817_1691" x1="226.45" y1="430.04" x2="263.98" y2="14.1" gradientUnits="userSpaceOnUse">
<stop stop-color="#EFD0FF"/>
<stop offset="0.1" stop-color="#E9D1FD"/>
<stop offset="0.23" stop-color="#D7D2F6"/>
<stop offset="0.38" stop-color="#BBD4EB"/>
<stop offset="0.54" stop-color="#93D8DB"/>
<stop offset="0.72" stop-color="#5FDCC7"/>
<stop offset="0.91" stop-color="#22E1AF"/>
<stop offset="1" stop-color="#00E4A2"/>
</linearGradient>
<linearGradient id="paint1_linear_1817_1691" x1="51.899" y1="150.625" x2="199.819" y2="150.625" gradientUnits="userSpaceOnUse">
<stop stop-color="#EFD0FF"/>
<stop offset="0.13" stop-color="#EBD0FD"/>
<stop offset="0.26" stop-color="#DFD1F9"/>
<stop offset="0.39" stop-color="#CBD3F1"/>
<stop offset="0.52" stop-color="#AFD5E6"/>
<stop offset="0.65" stop-color="#8BD8D8"/>
<stop offset="0.78" stop-color="#5EDCC7"/>
<stop offset="0.91" stop-color="#2BE0B3"/>
<stop offset="1" stop-color="#00E4A2"/>
</linearGradient>
<linearGradient id="paint2_linear_1817_1691" x1="280.021" y1="230.869" x2="385.491" y2="210.369" gradientUnits="userSpaceOnUse">
<stop stop-color="#EFD0FF"/>
<stop offset="0.13" stop-color="#EBD0FD"/>
<stop offset="0.26" stop-color="#DFD1F9"/>
<stop offset="0.39" stop-color="#CBD3F1"/>
<stop offset="0.52" stop-color="#AFD5E6"/>
<stop offset="0.65" stop-color="#8BD8D8"/>
<stop offset="0.78" stop-color="#5EDCC7"/>
<stop offset="0.91" stop-color="#2BE0B3"/>
<stop offset="1" stop-color="#00E4A2"/>
</linearGradient>
<linearGradient id="paint3_linear_1817_1691" x1="192.03" y1="69.4" x2="198.65" y2="6.39999" gradientUnits="userSpaceOnUse">
<stop stop-color="#00E4A2"/>
<stop offset="0.11" stop-color="#29E1B2"/>
<stop offset="0.29" stop-color="#64DCC9"/>
<stop offset="0.46" stop-color="#96D7DC"/>
<stop offset="0.62" stop-color="#BDD4EB"/>
<stop offset="0.77" stop-color="#D8D2F6"/>
<stop offset="0.9" stop-color="#E9D0FD"/>
<stop offset="1" stop-color="#EFD0FF"/>
</linearGradient>
<linearGradient id="paint4_linear_1817_1691" x1="405.92" y1="161.82" x2="459.18" y2="146.55" gradientUnits="userSpaceOnUse">
<stop stop-color="#EFD0FF"/>
<stop offset="0.13" stop-color="#EBD0FD"/>
<stop offset="0.26" stop-color="#DFD1F9"/>
<stop offset="0.39" stop-color="#CBD3F1"/>
<stop offset="0.52" stop-color="#AFD5E6"/>
<stop offset="0.65" stop-color="#8BD8D8"/>
<stop offset="0.78" stop-color="#5EDCC7"/>
<stop offset="0.91" stop-color="#2BE0B3"/>
<stop offset="1" stop-color="#00E4A2"/>
</linearGradient>
<linearGradient id="paint5_linear_1817_1691" x1="305.79" y1="366.71" x2="321.97" y2="427.09" gradientUnits="userSpaceOnUse">
<stop stop-color="#EFD0FF"/>
<stop offset="0.18" stop-color="#ECD0FE"/>
<stop offset="0.32" stop-color="#E3D1FA"/>
<stop offset="0.44" stop-color="#D2D2F4"/>
<stop offset="0.55" stop-color="#BCD4EB"/>
<stop offset="0.66" stop-color="#9ED7E0"/>
<stop offset="0.76" stop-color="#7ADAD2"/>
<stop offset="0.85" stop-color="#4FDDC1"/>
<stop offset="0.95" stop-color="#1FE1AE"/>
<stop offset="1" stop-color="#00E4A2"/>
</linearGradient>
<linearGradient id="paint6_linear_1817_1691" x1="37.39" y1="88.4" x2="106.35" y2="125.07" gradientUnits="userSpaceOnUse">
<stop stop-color="#00E4A2"/>
<stop offset="0.09" stop-color="#2BE0B3"/>
<stop offset="0.22" stop-color="#5EDCC7"/>
<stop offset="0.35" stop-color="#8BD8D8"/>
<stop offset="0.48" stop-color="#AFD5E6"/>
<stop offset="0.61" stop-color="#CBD3F1"/>
<stop offset="0.74" stop-color="#DFD1F9"/>
<stop offset="0.87" stop-color="#EBD0FD"/>
<stop offset="1" stop-color="#EFD0FF"/>
</linearGradient>
<linearGradient id="paint7_linear_1817_1691" x1="344.86" y1="107.47" x2="357.78" y2="2.17" gradientUnits="userSpaceOnUse">
<stop stop-color="#00E4A2"/>
<stop offset="0.03" stop-color="#0EE3A8"/>
<stop offset="0.13" stop-color="#42DEBC"/>
<stop offset="0.24" stop-color="#71DBCE"/>
<stop offset="0.35" stop-color="#98D7DD"/>
<stop offset="0.47" stop-color="#B7D5E9"/>
<stop offset="0.58" stop-color="#D0D3F3"/>
<stop offset="0.71" stop-color="#E1D1FA"/>
<stop offset="0.84" stop-color="#ECD0FE"/>
<stop offset="1" stop-color="#EFD0FF"/>
</linearGradient>
<linearGradient id="paint8_linear_1817_1691" x1="190.37" y1="318.43" x2="146.13" y2="417.79" gradientUnits="userSpaceOnUse">
<stop stop-color="#00E4A2"/>
<stop offset="0.27" stop-color="#4FDDC1"/>
<stop offset="0.53" stop-color="#94D8DB"/>
<stop offset="0.75" stop-color="#C5D4EF"/>
<stop offset="0.91" stop-color="#E4D1FB"/>
<stop offset="1" stop-color="#EFD0FF"/>
</linearGradient>
<linearGradient id="paint9_linear_1817_1691" x1="380.14" y1="283.56" x2="481.05" y2="356.87" gradientUnits="userSpaceOnUse">
<stop stop-color="#00E4A2"/>
<stop offset="0.09" stop-color="#2BE0B3"/>
<stop offset="0.22" stop-color="#5EDCC7"/>
<stop offset="0.35" stop-color="#8BD8D8"/>
<stop offset="0.48" stop-color="#AFD5E6"/>
<stop offset="0.61" stop-color="#CBD3F1"/>
<stop offset="0.74" stop-color="#DFD1F9"/>
<stop offset="0.87" stop-color="#EBD0FD"/>
<stop offset="1" stop-color="#EFD0FF"/>
</linearGradient>
<linearGradient id="paint10_linear_1817_1691" x1="5.13" y1="284.11" x2="105.41" y2="239.46" gradientUnits="userSpaceOnUse">
<stop stop-color="#02E4A3"/>
<stop offset="0.08" stop-color="#34E0B6"/>
<stop offset="0.15" stop-color="#5FDCC7"/>
<stop offset="0.24" stop-color="#86D9D6"/>
<stop offset="0.32" stop-color="#A7D6E3"/>
<stop offset="0.42" stop-color="#C1D4ED"/>
<stop offset="0.52" stop-color="#D6D2F5"/>
<stop offset="0.63" stop-color="#E4D1FB"/>
<stop offset="0.77" stop-color="#ECD0FE"/>
<stop offset="1" stop-color="#EFD0FF"/>
</linearGradient>
<linearGradient id="paint11_linear_1817_1691" x1="771.117" y1="206.9" x2="736.459" y2="7.10464" gradientUnits="userSpaceOnUse">
<stop stop-color="#EFD0FF"/>
<stop offset="0.11" stop-color="#EAD0FD"/>
<stop offset="0.24" stop-color="#DCD2F8"/>
<stop offset="0.38" stop-color="#C5D3EF"/>
<stop offset="0.52" stop-color="#A5D6E2"/>
<stop offset="0.67" stop-color="#7CDAD2"/>
<stop offset="0.82" stop-color="#49DEBE"/>
<stop offset="0.97" stop-color="#0EE3A7"/>
<stop offset="1" stop-color="#00E4A2"/>
</linearGradient>
<linearGradient id="paint12_linear_1817_1691" x1="810.67" y1="363" x2="698.89" y2="474.78" gradientUnits="userSpaceOnUse">
<stop stop-color="#EFD0FF"/>
<stop offset="0.11" stop-color="#EAD0FD"/>
<stop offset="0.24" stop-color="#DCD2F8"/>
<stop offset="0.38" stop-color="#C5D3EF"/>
<stop offset="0.52" stop-color="#A5D6E2"/>
<stop offset="0.67" stop-color="#7CDAD2"/>
<stop offset="0.82" stop-color="#49DEBE"/>
<stop offset="0.97" stop-color="#0EE3A7"/>
<stop offset="1" stop-color="#00E4A2"/>
</linearGradient>
<linearGradient id="paint13_linear_1817_1691" x1="810.67" y1="316.08" x2="698.89" y2="427.85" gradientUnits="userSpaceOnUse">
<stop stop-color="#EFD0FF"/>
<stop offset="0.11" stop-color="#EAD0FD"/>
<stop offset="0.24" stop-color="#DCD2F8"/>
<stop offset="0.38" stop-color="#C5D3EF"/>
<stop offset="0.52" stop-color="#A5D6E2"/>
<stop offset="0.67" stop-color="#7CDAD2"/>
<stop offset="0.82" stop-color="#49DEBE"/>
<stop offset="0.97" stop-color="#0EE3A7"/>
<stop offset="1" stop-color="#00E4A2"/>
</linearGradient>
<linearGradient id="paint14_linear_1817_1691" x1="810.67" y1="269.15" x2="698.89" y2="380.93" gradientUnits="userSpaceOnUse">
<stop stop-color="#EFD0FF"/>
<stop offset="0.11" stop-color="#EAD0FD"/>
<stop offset="0.24" stop-color="#DCD2F8"/>
<stop offset="0.38" stop-color="#C5D3EF"/>
<stop offset="0.52" stop-color="#A5D6E2"/>
<stop offset="0.67" stop-color="#7CDAD2"/>
<stop offset="0.82" stop-color="#49DEBE"/>
<stop offset="0.97" stop-color="#0EE3A7"/>
<stop offset="1" stop-color="#00E4A2"/>
</linearGradient>
<clipPath id="clip0_1817_1691">
<rect width="867.09" height="439.58" fill="white"/>
</clipPath>
</defs>
</svg>
