<svg width="117" height="47" viewBox="0 0 117 47" fill="none" xmlns="http://www.w3.org/2000/svg">
<path d="M44.2043 45.8325C36.7365 45.8325 30.6604 39.7564 30.6604 32.2886C30.6604 24.8208 36.7365 18.7446 44.2043 18.7446C51.6722 18.7446 57.7483 24.8208 57.7483 32.2886C57.7483 39.7564 51.6722 45.8325 44.2043 45.8325ZM44.2043 21.8256C38.4366 21.8256 33.7441 26.5181 33.7441 32.2859C33.7441 38.0537 38.4366 42.7462 44.2043 42.7462C49.9721 42.7462 54.6646 38.0537 54.6646 32.2859C54.6646 26.5181 49.9721 21.8256 44.2043 21.8256Z" fill="#CCFF00"/>
<path d="M6.53291 31.7818C5.68826 31.7818 4.97499 31.1785 4.83288 30.3446L0.0250572 2.07686C-0.0527045 1.62101 0.0518732 1.16517 0.320017 0.789766C0.588161 0.414364 0.985013 0.16499 1.43818 0.0872282C2.37668 -0.0709767 3.2696 0.561843 3.43049 1.50035L8.23562 29.7654C8.31338 30.2212 8.20881 30.6771 7.94067 31.0525C7.67252 31.4279 7.27567 31.6773 6.82251 31.755C6.72866 31.7711 6.63212 31.7818 6.53291 31.7818Z" fill="#CCFF00"/>
<path d="M14.5906 18.7417C11.8421 18.7417 9.28669 19.5649 7.14958 20.978L7.73146 24.3995C9.56824 22.7987 11.9681 21.8254 14.5906 21.8254C20.3583 21.8254 25.0509 26.5179 25.0509 32.2856C25.0509 38.0534 20.3583 42.7459 14.5906 42.7459C8.8228 42.7459 4.13028 38.0534 4.13028 32.2856C4.13028 31.5161 4.21609 30.768 4.37429 30.0466L3.44652 24.6006C1.93419 26.786 1.04663 29.4353 1.04663 32.2883C1.04663 39.7561 7.12277 45.8323 14.5906 45.8323C22.0584 45.8323 28.1345 39.7561 28.1345 32.2883C28.1345 24.8205 22.0611 18.7417 14.5906 18.7417Z" fill="#CCFF00"/>
<path d="M13.8504 40.1936C14.8693 40.1936 15.6953 39.3676 15.6953 38.3487C15.6953 37.3299 14.8693 36.5039 13.8504 36.5039C12.8316 36.5039 12.0056 37.3299 12.0056 38.3487C12.0056 39.3676 12.8316 40.1936 13.8504 40.1936Z" fill="#1CD8D2"/>
<path d="M19.6129 38.0456C20.6318 38.0456 21.4577 37.2197 21.4577 36.2008C21.4577 35.1819 20.6318 34.356 19.6129 34.356C18.594 34.356 17.7681 35.1819 17.7681 36.2008C17.7681 37.2197 18.594 38.0456 19.6129 38.0456Z" fill="#1CD8D2"/>
<path d="M15.0812 34.0901C16.1 34.0901 16.926 33.2641 16.926 32.2452C16.926 31.2264 16.1 30.4004 15.0812 30.4004C14.0623 30.4004 13.2363 31.2264 13.2363 32.2452C13.2363 33.2641 14.0623 34.0901 15.0812 34.0901Z" fill="#1CD8D2"/>
<path d="M9.35655 35.9753C10.3754 35.9753 11.2014 35.1493 11.2014 34.1305C11.2014 33.1116 10.3754 32.2856 9.35655 32.2856C8.33768 32.2856 7.51172 33.1116 7.51172 34.1305C7.51172 35.1493 8.33768 35.9753 9.35655 35.9753Z" fill="#1CD8D2"/>
<path d="M20.7926 32.1999C21.8115 32.1999 22.6374 31.374 22.6374 30.3551C22.6374 29.3362 21.8115 28.5103 20.7926 28.5103C19.7737 28.5103 18.9478 29.3362 18.9478 30.3551C18.9478 31.374 19.7737 32.1999 20.7926 32.1999Z" fill="#1CD8D2"/>
<path d="M16.3146 27.9875C17.3334 27.9875 18.1594 27.1615 18.1594 26.1427C18.1594 25.1238 17.3334 24.2979 16.3146 24.2979C15.2957 24.2979 14.4697 25.1238 14.4697 26.1427C14.4697 27.1615 15.2957 27.9875 16.3146 27.9875Z" fill="#1CD8D2"/>
<path d="M10.5336 30.1301C11.5524 30.1301 12.3784 29.3041 12.3784 28.2853C12.3784 27.2664 11.5524 26.4404 10.5336 26.4404C9.51468 26.4404 8.68872 27.2664 8.68872 28.2853C8.68872 29.3041 9.51468 30.1301 10.5336 30.1301Z" fill="#1CD8D2"/>
<path d="M65.7846 31.7818C64.94 31.7818 64.2267 31.1785 64.0846 30.3446L59.2768 2.07686C59.199 1.62101 59.3036 1.16517 59.5717 0.789766C59.8399 0.414364 60.2367 0.16499 60.6899 0.0872282C61.6284 -0.0709767 62.5213 0.561843 62.6822 1.50035L67.49 29.7681C67.5678 30.2239 67.4632 30.6798 67.1951 31.0552C66.9269 31.4306 66.5301 31.6799 66.0769 31.7577C65.983 31.7711 65.8838 31.7818 65.7846 31.7818Z" fill="#CCFF00"/>
<path d="M73.8425 18.7417C71.0941 18.7417 68.5386 19.5649 66.4015 20.978L66.9834 24.3995C68.8202 22.7987 71.2201 21.8254 73.8425 21.8254C79.6103 21.8254 84.3028 26.5179 84.3028 32.2856C84.3028 38.0534 79.6103 42.7459 73.8425 42.7459C68.0748 42.7459 63.3822 38.0534 63.3822 32.2856C63.3822 31.5161 63.468 30.768 63.6262 30.0466L62.6985 24.6006C61.1861 26.786 60.2986 29.4353 60.2986 32.2883C60.2986 39.7561 66.3747 45.8323 73.8425 45.8323C81.3103 45.8323 87.3865 39.7561 87.3865 32.2883C87.3865 24.8205 81.313 18.7417 73.8425 18.7417Z" fill="#CCFF00"/>
<path d="M73.1026 40.1936C74.1215 40.1936 74.9475 39.3676 74.9475 38.3487C74.9475 37.3299 74.1215 36.5039 73.1026 36.5039C72.0838 36.5039 71.2578 37.3299 71.2578 38.3487C71.2578 39.3676 72.0838 40.1936 73.1026 40.1936Z" fill="#1CD8D2"/>
<path d="M78.8649 38.0456C79.8837 38.0456 80.7097 37.2197 80.7097 36.2008C80.7097 35.1819 79.8837 34.356 78.8649 34.356C77.846 34.356 77.02 35.1819 77.02 36.2008C77.02 37.2197 77.846 38.0456 78.8649 38.0456Z" fill="#1CD8D2"/>
<path d="M74.336 34.0901C75.3549 34.0901 76.1809 33.2641 76.1809 32.2452C76.1809 31.2264 75.3549 30.4004 74.336 30.4004C73.3172 30.4004 72.4912 31.2264 72.4912 32.2452C72.4912 33.2641 73.3172 34.0901 74.336 34.0901Z" fill="#1CD8D2"/>
<path d="M68.6083 35.9753C69.6271 35.9753 70.4531 35.1493 70.4531 34.1305C70.4531 33.1116 69.6271 32.2856 68.6083 32.2856C67.5894 32.2856 66.7634 33.1116 66.7634 34.1305C66.7634 35.1493 67.5894 35.9753 68.6083 35.9753Z" fill="#1CD8D2"/>
<path d="M80.0448 32.1999C81.0636 32.1999 81.8896 31.374 81.8896 30.3551C81.8896 29.3362 81.0636 28.5103 80.0448 28.5103C79.0259 28.5103 78.2 29.3362 78.2 30.3551C78.2 31.374 79.0259 32.1999 80.0448 32.1999Z" fill="#1CD8D2"/>
<path d="M75.5668 27.9875C76.5856 27.9875 77.4116 27.1615 77.4116 26.1427C77.4116 25.1238 76.5856 24.2979 75.5668 24.2979C74.5479 24.2979 73.7219 25.1238 73.7219 26.1427C73.7219 27.1615 74.5479 27.9875 75.5668 27.9875Z" fill="#1CD8D2"/>
<path d="M69.7855 30.1301C70.8044 30.1301 71.6303 29.3041 71.6303 28.2853C71.6303 27.2664 70.8044 26.4404 69.7855 26.4404C68.7666 26.4404 67.9407 27.2664 67.9407 28.2853C67.9407 29.3041 68.7666 30.1301 69.7855 30.1301Z" fill="#1CD8D2"/>
<path d="M111.514 32.7661C112.359 32.7661 113.072 33.3694 113.214 34.2034L114.935 44.3633C115.013 44.8192 114.909 45.275 114.64 45.6504C114.372 46.0258 113.975 46.2752 113.522 46.353C112.584 46.5112 111.691 45.8783 111.53 44.9398L109.809 34.7799C109.731 34.324 109.835 33.8682 110.103 33.4928C110.372 33.1174 110.768 32.868 111.222 32.7902C111.318 32.7742 111.415 32.7661 111.514 32.7661Z" fill="#CCFF00"/>
<path d="M103.456 45.803C106.205 45.803 108.76 44.9798 110.897 43.5667L110.315 40.1451C108.478 41.746 106.078 42.7193 103.456 42.7193C97.6883 42.7193 92.9958 38.0268 92.9958 32.259C92.9958 26.4913 97.6883 21.7987 103.456 21.7987C109.224 21.7987 113.916 26.4913 113.916 32.259C113.916 33.0286 113.831 33.7767 113.672 34.498L114.6 39.944C116.112 37.7587 117 35.1094 117 32.2563C117 24.7885 110.924 18.7124 103.456 18.7124C95.9882 18.7124 89.9121 24.7885 89.9121 32.2563C89.9121 39.7242 95.9856 45.803 103.456 45.803Z" fill="#CCFF00"/>
</svg>
