<svg width="174" height="41" viewBox="0 0 174 41" fill="none" xmlns="http://www.w3.org/2000/svg">
<path d="M36.48 12.4989C35.5879 11.98 34.4285 11.98 33.4475 12.4989L26.4903 16.4779L21.7631 19.0728L14.806 23.0517C13.9141 23.5706 12.7546 23.5706 11.7735 23.0517L6.24352 19.9377C5.35158 19.4187 4.72723 18.4673 4.72723 17.4293V11.288C4.72723 10.25 5.26239 9.29852 6.24352 8.77953L11.6843 5.75211C12.5762 5.23313 13.7357 5.23313 14.7168 5.75211L20.1577 8.77953C21.0495 9.29852 21.6739 10.25 21.6739 11.288V15.2669L26.4011 12.5854V8.60655C26.4011 7.56856 25.8661 6.61708 24.8849 6.0981L14.806 0.389241C13.9141 -0.129747 12.7546 -0.129747 11.7735 0.389241L1.51628 6.0981C0.535158 6.61708 0 7.56856 0 8.60655V20.1108C0 21.1487 0.535158 22.1003 1.51628 22.6193L11.7735 28.3281C12.6654 28.8471 13.8249 28.8471 14.806 28.3281L21.7631 24.4356L26.4903 21.7542L33.4475 17.8618C34.3393 17.3428 35.4988 17.3428 36.48 17.8618L41.9207 20.8892C42.8126 21.4082 43.437 22.3598 43.437 23.3977V29.539C43.437 30.5771 42.9019 31.5285 41.9207 32.0474L36.48 35.1614C35.5879 35.6804 34.4285 35.6804 33.4475 35.1614L28.0067 32.134C27.1147 31.615 26.4903 30.6635 26.4903 29.6255V25.6467L21.7631 28.3281V32.3069C21.7631 33.3449 22.2983 34.2964 23.2793 34.8154L33.5366 40.5242C34.4285 41.0432 35.5879 41.0432 36.5691 40.5242L46.8264 34.8154C47.7183 34.2964 48.3427 33.3449 48.3427 32.3069V20.8027C48.3427 19.7647 47.8074 18.8134 46.8264 18.2944L36.48 12.4989Z" fill="#8247E5"/>
<path d="M72.21 24.3975H66.7754V20.9697H72.21C73.0498 20.9697 73.7334 20.833 74.2607 20.5596C74.7881 20.2764 75.1738 19.8857 75.418 19.3877C75.6621 18.8896 75.7842 18.3281 75.7842 17.7031C75.7842 17.0684 75.6621 16.4775 75.418 15.9307C75.1738 15.3838 74.7881 14.9443 74.2607 14.6123C73.7334 14.2803 73.0498 14.1143 72.21 14.1143H68.2988V32H63.9043V10.6719H72.21C73.8799 10.6719 75.3105 10.9746 76.502 11.5801C77.7031 12.1758 78.6211 13.001 79.2559 14.0557C79.8906 15.1104 80.208 16.3164 80.208 17.6738C80.208 19.0508 79.8906 20.2422 79.2559 21.248C78.6211 22.2539 77.7031 23.0303 76.502 23.5771C75.3105 24.124 73.8799 24.3975 72.21 24.3975ZM82.0977 24.2363V23.9287C82.0977 22.7666 82.2637 21.6973 82.5957 20.7207C82.9277 19.7344 83.4111 18.8799 84.0459 18.1572C84.6807 17.4346 85.4619 16.873 86.3896 16.4727C87.3174 16.0625 88.3818 15.8574 89.583 15.8574C90.7842 15.8574 91.8535 16.0625 92.791 16.4727C93.7285 16.873 94.5146 17.4346 95.1494 18.1572C95.7939 18.8799 96.2822 19.7344 96.6143 20.7207C96.9463 21.6973 97.1123 22.7666 97.1123 23.9287V24.2363C97.1123 25.3887 96.9463 26.458 96.6143 27.4443C96.2822 28.4209 95.7939 29.2754 95.1494 30.0078C94.5146 30.7305 93.7334 31.292 92.8057 31.6924C91.8779 32.0928 90.8135 32.293 89.6123 32.293C88.4111 32.293 87.3418 32.0928 86.4043 31.6924C85.4766 31.292 84.6904 30.7305 84.0459 30.0078C83.4111 29.2754 82.9277 28.4209 82.5957 27.4443C82.2637 26.458 82.0977 25.3887 82.0977 24.2363ZM86.3164 23.9287V24.2363C86.3164 24.9004 86.375 25.5205 86.4922 26.0967C86.6094 26.6729 86.7949 27.1807 87.0488 27.6201C87.3125 28.0498 87.6543 28.3867 88.0742 28.6309C88.4941 28.875 89.0068 28.9971 89.6123 28.9971C90.1982 28.9971 90.7012 28.875 91.1211 28.6309C91.541 28.3867 91.8779 28.0498 92.1318 27.6201C92.3857 27.1807 92.5713 26.6729 92.6885 26.0967C92.8154 25.5205 92.8789 24.9004 92.8789 24.2363V23.9287C92.8789 23.2842 92.8154 22.6787 92.6885 22.1123C92.5713 21.5361 92.3809 21.0283 92.1172 20.5889C91.8633 20.1396 91.5264 19.7881 91.1064 19.5342C90.6865 19.2803 90.1787 19.1533 89.583 19.1533C88.9873 19.1533 88.4795 19.2803 88.0596 19.5342C87.6494 19.7881 87.3125 20.1396 87.0488 20.5889C86.7949 21.0283 86.6094 21.5361 86.4922 22.1123C86.375 22.6787 86.3164 23.2842 86.3164 23.9287ZM104.158 9.5V32H99.9248V9.5H104.158ZM112.347 30.2129L116.551 16.1504H121.077L114.705 34.3877C114.568 34.7881 114.383 35.2178 114.148 35.6768C113.924 36.1357 113.616 36.5703 113.226 36.9805C112.845 37.4004 112.361 37.7422 111.775 38.0059C111.199 38.2695 110.491 38.4014 109.651 38.4014C109.251 38.4014 108.924 38.377 108.67 38.3281C108.416 38.2793 108.113 38.2109 107.762 38.123V35.0322C107.869 35.0322 107.981 35.0322 108.099 35.0322C108.216 35.042 108.328 35.0469 108.436 35.0469C108.992 35.0469 109.446 34.9834 109.798 34.8564C110.149 34.7295 110.433 34.5342 110.647 34.2705C110.862 34.0166 111.033 33.6846 111.16 33.2744L112.347 30.2129ZM110.589 16.1504L114.031 27.6348L114.632 32.1025L111.761 32.4102L106.062 16.1504H110.589ZM132.591 16.1504H136.414V31.4727C136.414 32.918 136.092 34.1436 135.447 35.1494C134.812 36.165 133.924 36.9316 132.781 37.4492C131.639 37.9766 130.311 38.2402 128.797 38.2402C128.133 38.2402 127.43 38.1523 126.688 37.9766C125.955 37.8008 125.252 37.5273 124.578 37.1562C123.914 36.7852 123.357 36.3164 122.908 35.75L124.769 33.2598C125.257 33.8262 125.823 34.2656 126.468 34.5781C127.112 34.9004 127.825 35.0615 128.606 35.0615C129.368 35.0615 130.013 34.9199 130.54 34.6367C131.067 34.3633 131.473 33.958 131.756 33.4209C132.039 32.8936 132.181 32.2539 132.181 31.502V19.8125L132.591 16.1504ZM121.927 24.2656V23.958C121.927 22.7471 122.073 21.6484 122.366 20.6621C122.669 19.666 123.094 18.8115 123.641 18.0986C124.197 17.3857 124.871 16.834 125.662 16.4434C126.453 16.0527 127.347 15.8574 128.343 15.8574C129.397 15.8574 130.281 16.0527 130.994 16.4434C131.707 16.834 132.293 17.3906 132.752 18.1133C133.211 18.8262 133.567 19.6709 133.821 20.6475C134.085 21.6143 134.29 22.6738 134.437 23.8262V24.5C134.29 25.6035 134.07 26.6289 133.777 27.5762C133.484 28.5234 133.099 29.3535 132.62 30.0664C132.142 30.7695 131.546 31.3164 130.833 31.707C130.13 32.0977 129.29 32.293 128.313 32.293C127.337 32.293 126.453 32.0928 125.662 31.6924C124.881 31.292 124.212 30.7305 123.655 30.0078C123.099 29.2852 122.669 28.4355 122.366 27.459C122.073 26.4824 121.927 25.418 121.927 24.2656ZM126.146 23.958V24.2656C126.146 24.9199 126.209 25.5303 126.336 26.0967C126.463 26.6631 126.658 27.166 126.922 27.6055C127.195 28.0352 127.532 28.3721 127.933 28.6162C128.343 28.8506 128.826 28.9678 129.383 28.9678C130.154 28.9678 130.784 28.8066 131.272 28.4844C131.761 28.1523 132.127 27.6982 132.371 27.1221C132.615 26.5459 132.757 25.8818 132.796 25.1299V23.2109C132.776 22.5957 132.693 22.0439 132.547 21.5557C132.4 21.0576 132.195 20.6328 131.932 20.2812C131.668 19.9297 131.326 19.6562 130.906 19.4609C130.486 19.2656 129.988 19.168 129.412 19.168C128.855 19.168 128.372 19.2949 127.962 19.5488C127.562 19.793 127.225 20.1299 126.951 20.5596C126.688 20.9893 126.487 21.4971 126.351 22.083C126.214 22.6592 126.146 23.2842 126.146 23.958ZM139.021 24.2363V23.9287C139.021 22.7666 139.188 21.6973 139.52 20.7207C139.852 19.7344 140.335 18.8799 140.97 18.1572C141.604 17.4346 142.386 16.873 143.313 16.4727C144.241 16.0625 145.306 15.8574 146.507 15.8574C147.708 15.8574 148.777 16.0625 149.715 16.4727C150.652 16.873 151.438 17.4346 152.073 18.1572C152.718 18.8799 153.206 19.7344 153.538 20.7207C153.87 21.6973 154.036 22.7666 154.036 23.9287V24.2363C154.036 25.3887 153.87 26.458 153.538 27.4443C153.206 28.4209 152.718 29.2754 152.073 30.0078C151.438 30.7305 150.657 31.292 149.729 31.6924C148.802 32.0928 147.737 32.293 146.536 32.293C145.335 32.293 144.266 32.0928 143.328 31.6924C142.4 31.292 141.614 30.7305 140.97 30.0078C140.335 29.2754 139.852 28.4209 139.52 27.4443C139.188 26.458 139.021 25.3887 139.021 24.2363ZM143.24 23.9287V24.2363C143.24 24.9004 143.299 25.5205 143.416 26.0967C143.533 26.6729 143.719 27.1807 143.973 27.6201C144.236 28.0498 144.578 28.3867 144.998 28.6309C145.418 28.875 145.931 28.9971 146.536 28.9971C147.122 28.9971 147.625 28.875 148.045 28.6309C148.465 28.3867 148.802 28.0498 149.056 27.6201C149.31 27.1807 149.495 26.6729 149.612 26.0967C149.739 25.5205 149.803 24.9004 149.803 24.2363V23.9287C149.803 23.2842 149.739 22.6787 149.612 22.1123C149.495 21.5361 149.305 21.0283 149.041 20.5889C148.787 20.1396 148.45 19.7881 148.03 19.5342C147.61 19.2803 147.103 19.1533 146.507 19.1533C145.911 19.1533 145.403 19.2803 144.983 19.5342C144.573 19.7881 144.236 20.1396 143.973 20.5889C143.719 21.0283 143.533 21.5361 143.416 22.1123C143.299 22.6787 143.24 23.2842 143.24 23.9287ZM160.76 19.5342V32H156.541V16.1504H160.496L160.76 19.5342ZM160.145 23.5186H159.002C159.002 22.3467 159.153 21.292 159.456 20.3545C159.759 19.4072 160.184 18.6016 160.73 17.9375C161.277 17.2637 161.927 16.751 162.679 16.3994C163.44 16.0381 164.29 15.8574 165.228 15.8574C165.97 15.8574 166.648 15.9648 167.264 16.1797C167.879 16.3945 168.406 16.7363 168.846 17.2051C169.295 17.6738 169.637 18.2939 169.871 19.0654C170.115 19.8369 170.237 20.7793 170.237 21.8926V32H165.989V21.8779C165.989 21.1748 165.892 20.6279 165.696 20.2373C165.501 19.8467 165.213 19.5732 164.832 19.417C164.461 19.251 164.002 19.168 163.455 19.168C162.889 19.168 162.396 19.2803 161.976 19.5049C161.565 19.7295 161.224 20.042 160.95 20.4424C160.687 20.833 160.486 21.292 160.35 21.8193C160.213 22.3467 160.145 22.9131 160.145 23.5186Z" fill="white"/>
</svg>
